<svg width="39" height="29" viewBox="0 0 39 29" fill="none" xmlns="http://www.w3.org/2000/svg">
<path fill-rule="evenodd" clip-rule="evenodd" d="M18.5872 9.93848C18.2698 9.98923 17.9309 10.0167 17.5791 10.0167C15.7855 10.0167 14.3292 9.3043 14.3292 8.42667C14.3292 7.54942 15.7855 6.83701 17.5791 6.83701C19.3727 6.83701 20.829 7.54942 20.829 8.42667C20.829 8.55946 20.7958 8.68805 20.7303 8.80977C20.7053 8.85938 20.7034 8.917 20.7252 8.96813C20.7471 9.01926 20.7907 9.05856 20.8442 9.07573L25.4844 10.554C25.5593 10.578 25.6123 10.644 25.6182 10.7211C25.624 10.7986 25.5819 10.8714 25.5109 10.9062L22.4404 12.4084C22.3067 12.4737 22.1468 12.4588 22.0282 12.3695C21.3999 11.8975 19.4265 10.4155 18.8891 10.0121C18.8033 9.94764 18.6937 9.92093 18.5872 9.93848Z" fill="#B6CBDE" fill-opacity="0.1"/>
<path fill-rule="evenodd" clip-rule="evenodd" d="M39 11.0658V12.5921L24.18 19.8421V24.4211L27.3 22.8947V20.6053L30.42 19.0789V21.3684L39 17.1711V18.6974L30.42 22.8947V27.4737L28.86 26.7105L27.3 29V24.4211L22.62 26.7105L0 15.6447V8.01316L22.62 19.0789L39 11.0658Z" fill="#DBD4CE"/>
<path fill-rule="evenodd" clip-rule="evenodd" d="M0 8.01316L16.38 0L39 11.0658L22.62 19.0789L0 8.01316ZM18.5872 9.93848C18.6937 9.92093 18.8033 9.94764 18.8891 10.0121C19.4265 10.4155 21.3999 11.8975 22.0282 12.3695C22.1468 12.4588 22.3067 12.4737 22.4404 12.4084L25.5109 10.9062C25.5819 10.8714 25.624 10.7986 25.6182 10.7211C25.6123 10.644 25.5593 10.578 25.4844 10.554L20.8442 9.07573C20.7907 9.05856 20.7471 9.01926 20.7252 8.96813C20.7034 8.917 20.7053 8.85938 20.7303 8.80977C20.7958 8.68805 20.829 8.55946 20.829 8.42667C20.829 7.54942 19.3727 6.83701 17.5791 6.83701C15.7855 6.83701 14.3292 7.54942 14.3292 8.42667C14.3292 9.3043 15.7855 10.0167 17.5791 10.0167C17.9309 10.0167 18.2698 9.98923 18.5872 9.93848Z" fill="#F0EBE7"/>
<path fill-rule="evenodd" clip-rule="evenodd" d="M27.3 20.6053V29L28.86 26.7105L30.42 27.4737V19.0789L27.3 20.6053Z" fill="#B6CBDE" fill-opacity="0.1"/>
</svg>
