<svg xmlns="http://www.w3.org/2000/svg" version="1.1" xmlns:xlink="http://www.w3.org/1999/xlink" xmlns:svgjs="http://svgjs.dev/svgjs" width="39" height="29"><svg xmlns="http://www.w3.org/2000/svg" viewBox="0 0 39 29" width="39" height="29"><defs></defs><g>
<rect fill="#ffffff" fill-opacity="0" x="0" y="0" width="39" height="29"></rect>
<g>
	<g transform="matrix(1,0,0,1,19.5,14.5)">
		<g>
			<g>
				<path d="M18.5872,9.93848C18.2698,9.98923 17.930901,10.0167 17.5791,10.0167 C15.7855,10.0167 14.3292,9.3043 14.3292,8.42667 C14.3292,7.54942 15.7855,6.83701 17.5791,6.83701 C19.3727,6.83701 20.829,7.54942 20.829,8.42667 C20.829,8.55946 20.795799,8.68805 20.730301,8.80977 C20.705299,8.85938 20.7034,8.917 20.725201,8.96813 C20.747101,9.01926 20.790701,9.05856 20.8442,9.07573 C20.8442,9.07573 25.4844,10.554 25.4844,10.554 C25.559299,10.578 25.612301,10.644 25.6182,10.7211 C25.624001,10.7986 25.5819,10.8714 25.5109,10.9062 C25.5109,10.9062 22.440399,12.4084 22.440399,12.4084 C22.3067,12.4737 22.146799,12.4588 22.0282,12.3695 C21.3999,11.8975 19.4265,10.4155 18.889099,10.0121 C18.803301,9.94764 18.693701,9.92093 18.5872,9.93848 C18.5872,9.93848 18.5872,9.93848 18.5872,9.93848 Z" transform="matrix(3.324765272,0,0,3.324765272,-66.408747083,-32.060189771)" fill="#67e4b6"></path>
			</g>
		</g>
	</g>
</g></g></svg><style>@media (prefers-color-scheme: light) { :root { filter: none; } }
@media (prefers-color-scheme: dark) { :root { filter: none; } }
</style></svg>