<svg version="1.2" xmlns="http://www.w3.org/2000/svg" viewBox="0 0 1078 1095" width="1078" height="1095">
	<title>image</title>
	<defs>
		<linearGradient id="g1" x2="1" gradientUnits="userSpaceOnUse" gradientTransform="matrix(-899.334,-22.785,19.089,-753.456,1272.577,894.848)">
			<stop offset="0" stop-color="#060e15"/>
			<stop offset="1" stop-color="#060e15" stop-opacity="0"/>
		</linearGradient>
	</defs>
	<style>
		.s0 { opacity: .1;fill: #b6cbde } 
		.s1 { fill: #dbd4ce } 
		.s2 { fill: #f0ebe7 } 
		.s3 { opacity: .8;fill: url(#g1) } 
	</style>
	<g id="Layer 1">
		<path fill-rule="evenodd" class="s0" d="m345.2 132.7c-3-0.8-6.2-1.9-9.3-3.3-16-7.2-26.2-19.4-22.7-27.2 3.5-7.9 19.4-8.4 35.4-1.2 16.1 7.2 26.2 19.4 22.7 27.2q-0.8 1.8-2.4 3c-0.4 0.4-0.7 0.9-0.7 1.4 0 0.6 0.2 1.1 0.6 1.5l35.6 31.8c0.6 0.5 0.8 1.3 0.5 2-0.2 0.7-0.9 1.2-1.7 1.2l-33.4 1.1c-1.5 0.1-2.9-0.7-3.6-2-3.7-6.7-15.4-27.9-18.6-33.6-0.5-0.9-1.4-1.6-2.4-1.9z"/>
		<path fill-rule="evenodd" class="s1" d="m523.1 224.6l-6.1 13.6-161.5 5.3-18.3 40.9 34-1.1 9.2-20.5 34-1.1-9.2 20.5 93.5-3.1-6.1 13.6-93.5 3.1-18.3 40.9-10.9-13.1-23.1 14.2 18.3-40.9-51 1.7-157.8-189.5 30.5-68.1 157.9 189.5z"/>
		<path fill-rule="evenodd" class="s2" d="m186.8 41l178.5-5.8 157.8 189.4-178.4 5.9zm158.4 91.7c1 0.2 1.8 0.9 2.4 1.8 3.1 5.8 14.8 26.9 18.6 33.6 0.7 1.3 2 2.1 3.5 2l33.4-1.1c0.8 0 1.5-0.5 1.7-1.2 0.3-0.7 0.1-1.5-0.5-2l-35.5-31.8c-0.4-0.4-0.7-0.9-0.7-1.4 0.1-0.6 0.3-1.1 0.7-1.4q1.6-1.3 2.4-3.1c3.5-7.8-6.6-20-22.6-27.2-16.1-7.2-31.9-6.6-35.4 1.2-3.6 7.8 6.6 20 22.6 27.2 3.2 1.4 6.3 2.5 9.4 3.4z"/>
		<path fill-rule="evenodd" class="s0" d="m380.4 262.8l-33.6 75 23.1-14.2 10.9 13.1 33.6-75z"/>
		<path fill-rule="evenodd" class="s0" d="m190.3 920.1c-3-0.8-6.1-2-9.3-3.4-16-7.2-26.2-19.4-22.7-27.2 3.5-7.8 19.4-8.3 35.4-1.2 16.1 7.2 26.2 19.4 22.7 27.3q-0.8 1.7-2.4 3c-0.4 0.3-0.7 0.8-0.7 1.4 0 0.5 0.2 1.1 0.7 1.4l35.5 31.8c0.6 0.5 0.8 1.3 0.5 2-0.2 0.8-0.9 1.2-1.7 1.3l-33.4 1.1c-1.5 0-2.9-0.8-3.6-2-3.7-6.8-15.4-27.9-18.6-33.7-0.5-0.9-1.3-1.6-2.4-1.8z"/>
		<path fill-rule="evenodd" class="s1" d="m368.2 1012l-6.1 13.6-161.4 5.3-18.4 40.8 34-1.1 9.2-20.4 34-1.1-9.2 20.4 93.5-3.1-6.1 13.7-93.5 3-18.3 40.9-10.9-13.1-23.1 14.2 18.3-40.8-51 1.6-157.8-189.4 30.5-68.1 157.9 189.4z"/>
		<path fill-rule="evenodd" class="s2" d="m31.9 828.4l178.5-5.9 157.8 189.5-178.4 5.8zm158.4 91.7c1 0.3 1.9 1 2.4 1.9 3.1 5.7 14.8 26.9 18.6 33.6 0.7 1.3 2 2 3.5 2l33.4-1.1c0.8 0 1.5-0.5 1.7-1.2 0.3-0.7 0.1-1.5-0.5-2.1l-35.5-31.7c-0.4-0.4-0.7-0.9-0.7-1.5 0.1-0.5 0.3-1 0.7-1.4q1.6-1.2 2.4-3c3.6-7.8-6.6-20-22.6-27.2-16.1-7.2-31.9-6.7-35.4 1.1-3.6 7.9 6.6 20.1 22.6 27.3 3.2 1.4 6.3 2.5 9.4 3.3z"/>
		<path fill-rule="evenodd" class="s0" d="m225.5 1050.2l-33.6 74.9 23.1-14.2 10.9 13.1 33.6-74.9z"/>
		<path fill-rule="evenodd" class="s0" d="m680.9 317.6c-3-0.8-6.2-1.9-9.3-3.4-16-7.1-26.2-19.3-22.7-27.2 3.5-7.8 19.4-8.3 35.4-1.1 16.1 7.2 26.2 19.3 22.7 27.2q-0.8 1.8-2.4 3c-0.4 0.3-0.7 0.9-0.7 1.4 0 0.5 0.2 1.1 0.6 1.4l35.6 31.8c0.6 0.5 0.8 1.3 0.5 2.1-0.2 0.7-0.9 1.2-1.7 1.2l-33.4 1.1c-1.5 0-2.9-0.8-3.6-2-3.7-6.8-15.4-27.9-18.6-33.6-0.5-1-1.4-1.6-2.4-1.9z"/>
		<path fill-rule="evenodd" class="s1" d="m858.8 409.5l-6.1 13.6-161.5 5.3-18.3 40.9 34-1.2 9.2-20.4 34-1.1-9.2 20.4 93.5-3-6.1 13.6-93.5 3.1-18.3 40.8-10.9-13-23.1 14.1 18.3-40.8-51 1.6-157.8-189.4 30.5-68.1 157.9 189.4z"/>
		<path fill-rule="evenodd" class="s2" d="m522.5 225.9l178.5-5.9 157.8 189.5-178.4 5.8zm158.3 91.7c1.1 0.3 1.9 1 2.5 1.9 3.1 5.7 14.8 26.9 18.6 33.6 0.7 1.3 2 2.1 3.5 2l33.4-1.1c0.8 0 1.5-0.5 1.7-1.2 0.3-0.7 0.1-1.5-0.5-2l-35.5-31.8c-0.4-0.4-0.7-0.9-0.7-1.5 0-0.5 0.3-1 0.7-1.4q1.6-1.2 2.4-3c3.5-7.8-6.6-20-22.6-27.2-16.1-7.2-31.9-6.7-35.4 1.2-3.6 7.8 6.6 20 22.6 27.2 3.2 1.4 6.3 2.5 9.3 3.3z"/>
		<path fill-rule="evenodd" class="s0" d="m716.1 447.7l-33.6 74.9 23.1-14.1 10.9 13 33.6-74.9z"/>
		<path fill-rule="evenodd" class="s0" d="m526 1104.9c-3-0.8-6.2-1.9-9.3-3.3-16-7.2-26.2-19.4-22.7-27.2 3.5-7.9 19.4-8.4 35.4-1.2 16.1 7.2 26.2 19.4 22.7 27.2q-0.8 1.8-2.4 3.1c-0.4 0.3-0.7 0.8-0.7 1.3 0 0.6 0.2 1.1 0.6 1.5l35.6 31.8c0.6 0.5 0.8 1.3 0.5 2-0.2 0.7-0.9 1.2-1.7 1.2l-33.4 1.1c-1.5 0.1-2.9-0.7-3.6-2-3.7-6.7-15.4-27.8-18.6-33.6-0.5-0.9-1.4-1.6-2.4-1.9z"/>
		<path fill-rule="evenodd" class="s1" d="m703.9 1196.8l-6.1 13.6-161.4 5.3-18.4 40.9 34-1.1 9.2-20.4 34-1.2-9.2 20.5 93.5-3.1-6.1 13.6-93.5 3.1-18.3 40.9-10.9-13.1-23.1 14.2 18.3-40.9-51 1.7-157.8-189.4 30.5-68.2 157.9 189.5z"/>
		<path fill-rule="evenodd" class="s2" d="m367.6 1013.2l178.5-5.8 157.8 189.4-178.4 5.9zm158.4 91.7c1 0.2 1.8 0.9 2.4 1.8 3.1 5.8 14.8 26.9 18.6 33.7 0.7 1.2 2 2 3.5 2l33.4-1.1c0.8-0.1 1.5-0.5 1.7-1.3 0.3-0.7 0.1-1.5-0.5-2l-35.5-31.8c-0.4-0.4-0.7-0.9-0.7-1.4 0.1-0.6 0.3-1.1 0.7-1.4q1.6-1.3 2.4-3c3.5-7.9-6.6-20.1-22.6-27.3-16.1-7.1-31.9-6.6-35.4 1.2-3.6 7.8 6.6 20 22.6 27.2 3.2 1.4 6.3 2.6 9.4 3.4z"/>
		<path fill-rule="evenodd" class="s0" d="m561.2 1235.1l-33.6 74.9 23.1-14.2 10.9 13.1 33.6-75z"/>
		<path fill-rule="evenodd" class="s0" d="m396.3-128.4c-3.1-0.8-6.2-1.9-9.4-3.3-16-7.2-26.2-19.4-22.6-27.2 3.5-7.9 19.3-8.4 35.4-1.2 16 7.2 26.1 19.4 22.6 27.2q-0.8 1.8-2.4 3c-0.4 0.4-0.7 0.9-0.7 1.4 0 0.6 0.3 1.1 0.7 1.5l35.5 31.8c0.6 0.5 0.8 1.3 0.5 2-0.2 0.7-0.9 1.2-1.7 1.2l-33.4 1.1c-1.5 0.1-2.8-0.7-3.5-2-3.8-6.7-15.5-27.8-18.6-33.6-0.6-0.9-1.4-1.6-2.4-1.9z"/>
		<path fill-rule="evenodd" class="s1" d="m574.1-36.5l-6.1 13.6-161.4 5.3-18.4 40.9 34-1.1 9.2-20.4 34-1.2-9.2 20.5 93.5-3.1-6.1 13.6-93.5 3.1-18.3 40.9-10.9-13.1-23.1 14.2 18.3-40.9-51 1.7-157.8-189.4 30.6-68.2 157.8 189.5z"/>
		<path fill-rule="evenodd" class="s2" d="m237.9-220.1l178.4-5.8 157.8 189.4-178.4 5.9zm158.4 91.7c1 0.2 1.9 0.9 2.4 1.8 3.2 5.8 14.9 26.9 18.6 33.7 0.7 1.2 2.1 2 3.5 2l33.5-1.1c0.7-0.1 1.4-0.5 1.7-1.3 0.2-0.7 0-1.5-0.6-2l-35.5-31.8c-0.4-0.4-0.6-0.9-0.6-1.4 0-0.6 0.2-1.1 0.6-1.4q1.7-1.3 2.5-3c3.5-7.9-6.7-20.1-22.7-27.3-16-7.1-31.9-6.6-35.4 1.2-3.5 7.8 6.6 20 22.7 27.2 3.1 1.4 6.2 2.5 9.3 3.4z"/>
		<path fill-rule="evenodd" class="s0" d="m431.4 1.8l-33.6 74.9 23.1-14.2 10.9 13.1 33.6-75z"/>
		<path fill-rule="evenodd" class="s0" d="m241.4 659c-3.1-0.8-6.2-2-9.4-3.4-16-7.2-26.2-19.3-22.6-27.2 3.5-7.8 19.3-8.3 35.4-1.1 16 7.1 26.1 19.3 22.6 27.2q-0.8 1.8-2.4 3c-0.4 0.3-0.6 0.8-0.7 1.4 0 0.5 0.3 1.1 0.7 1.4l35.5 31.8c0.6 0.5 0.8 1.3 0.5 2-0.2 0.8-0.9 1.2-1.7 1.3l-33.4 1.1c-1.5 0-2.8-0.8-3.5-2-3.8-6.8-15.5-27.9-18.6-33.7-0.6-0.9-1.4-1.6-2.4-1.8z"/>
		<path fill-rule="evenodd" class="s1" d="m419.2 750.9l-6.1 13.6-161.4 5.3-18.4 40.9 34-1.2 9.2-20.4 34-1.1-9.2 20.4 93.5-3-6.1 13.6-93.5 3-18.3 40.9-10.9-13.1-23.1 14.2 18.3-40.8-51 1.6-157.8-189.4 30.6-68.1 157.8 189.4z"/>
		<path fill-rule="evenodd" class="s2" d="m83 567.3l178.4-5.9 157.8 189.5-178.4 5.8zm158.4 91.7c1 0.3 1.9 1 2.4 1.9 3.2 5.7 14.9 26.9 18.6 33.6 0.7 1.3 2.1 2.1 3.5 2l33.5-1.1c0.7 0 1.4-0.5 1.7-1.2 0.2-0.7 0-1.5-0.6-2l-35.5-31.8c-0.4-0.4-0.6-0.9-0.6-1.5 0-0.5 0.2-1 0.6-1.4q1.7-1.2 2.5-3c3.5-7.8-6.7-20-22.7-27.2-16-7.2-31.9-6.7-35.4 1.2-3.5 7.8 6.6 20 22.7 27.2 3.1 1.4 6.2 2.5 9.3 3.3z"/>
		<path fill-rule="evenodd" class="s0" d="m276.5 789.1l-33.6 74.9 23.1-14.2 10.9 13.1 33.6-74.9z"/>
		<path fill-rule="evenodd" class="s0" d="m732.9 54.5c-3.1-0.9-6.2-2-9.4-3.4-16-7.2-26.1-19.4-22.6-27.2 3.5-7.8 19.3-8.4 35.4-1.2 16 7.2 26.2 19.4 22.6 27.2q-0.8 1.8-2.4 3.1c-0.4 0.3-0.6 0.8-0.6 1.4-0.1 0.5 0.2 1 0.6 1.4l35.5 31.8c0.6 0.5 0.8 1.3 0.6 2-0.3 0.7-1 1.2-1.7 1.2l-33.5 1.1c-1.5 0.1-2.8-0.7-3.5-2-3.7-6.7-15.4-27.8-18.6-33.6-0.5-0.9-1.4-1.6-2.4-1.8z"/>
		<path fill-rule="evenodd" class="s1" d="m910.8 146.3l-6.2 13.7-161.4 5.3-18.3 40.8 33.9-1.1 9.2-20.4 34-1.1-9.2 20.4 93.5-3.1-6.1 13.7-93.5 3-18.3 40.9-10.9-13.1-23.1 14.2 18.3-40.9-50.9 1.7-157.9-189.4 30.6-68.1 157.8 189.4z"/>
		<path fill-rule="evenodd" class="s2" d="m574.5-37.2l178.4-5.9 157.9 189.4-178.5 5.9zm158.4 91.7c1 0.3 1.9 0.9 2.4 1.9 3.2 5.7 14.9 26.8 18.6 33.6 0.7 1.2 2.1 2 3.5 2l33.5-1.1c0.8 0 1.4-0.5 1.7-1.2 0.2-0.8 0-1.6-0.5-2.1l-35.6-31.8c-0.4-0.3-0.6-0.9-0.6-1.4 0-0.5 0.2-1.1 0.7-1.4q1.6-1.2 2.4-3c3.5-7.8-6.7-20-22.7-27.2-16-7.2-31.9-6.7-35.4 1.1-3.5 7.9 6.6 20.1 22.7 27.2 3.1 1.5 6.2 2.6 9.3 3.4z"/>
		<path fill-rule="evenodd" class="s0" d="m768 184.6l-33.6 74.9 23.1-14.2 10.9 13.1 33.6-74.9z"/>
		<path fill-rule="evenodd" class="s0" d="m578 841.8c-3.1-0.8-6.2-1.9-9.4-3.3-16-7.2-26.1-19.4-22.6-27.3 3.5-7.8 19.3-8.3 35.4-1.1 16 7.2 26.2 19.4 22.6 27.2q-0.8 1.8-2.4 3c-0.4 0.4-0.6 0.9-0.6 1.4-0.1 0.6 0.2 1.1 0.6 1.5l35.5 31.7c0.6 0.6 0.8 1.4 0.6 2.1-0.3 0.7-1 1.2-1.7 1.2l-33.5 1.1c-1.4 0-2.8-0.7-3.5-2-3.7-6.7-15.4-27.9-18.6-33.6-0.5-0.9-1.4-1.6-2.4-1.9z"/>
		<path fill-rule="evenodd" class="s1" d="m755.9 933.7l-6.2 13.6-161.4 5.3-18.3 40.9 33.9-1.1 9.2-20.5 34-1.1-9.2 20.5 93.5-3.1-6.1 13.6-93.5 3.1-18.3 40.8-10.9-13-23.1 14.2 18.3-40.9-50.9 1.7-157.9-189.5 30.6-68.1 157.8 189.5z"/>
		<path fill-rule="evenodd" class="s2" d="m419.6 750.1l178.4-5.8 157.9 189.4-178.5 5.9zm158.4 91.6c1 0.3 1.9 1 2.4 1.9 3.2 5.8 14.9 26.9 18.6 33.6 0.7 1.3 2.1 2.1 3.5 2l33.5-1.1c0.8 0 1.4-0.5 1.7-1.2 0.2-0.7 0-1.5-0.5-2l-35.6-31.8c-0.4-0.4-0.6-0.9-0.6-1.4 0-0.6 0.2-1.1 0.7-1.4q1.6-1.3 2.4-3.1c3.5-7.8-6.7-20-22.7-27.2-16-7.2-31.9-6.7-35.4 1.2-3.5 7.8 6.6 20 22.7 27.2 3.1 1.4 6.3 2.5 9.3 3.3z"/>
		<path fill-rule="evenodd" class="s0" d="m613.1 971.9l-33.6 75 23.1-14.2 10.9 13 33.6-74.9z"/>
		<path fill-rule="evenodd" class="s0" d="m1018.5 498.4c-3.1-0.8-6.2-2-9.4-3.4-16-7.2-26.2-19.4-22.6-27.2 3.5-7.8 19.3-8.3 35.4-1.2 16 7.2 26.1 19.4 22.6 27.3q-0.8 1.7-2.4 3c-0.4 0.3-0.6 0.8-0.7 1.4 0 0.5 0.3 1.1 0.7 1.4l35.5 31.8c0.6 0.5 0.8 1.3 0.5 2-0.2 0.8-0.9 1.2-1.6 1.3l-33.5 1.1c-1.5 0-2.8-0.8-3.5-2-3.8-6.8-15.5-27.9-18.6-33.7-0.6-0.9-1.4-1.6-2.4-1.8z"/>
		<path fill-rule="evenodd" class="s1" d="m1196.3 590.3l-6.1 13.6-161.4 5.3-18.4 40.8 34-1.1 9.2-20.4 34-1.1-9.2 20.4 93.5-3.1-6.1 13.7-93.5 3-18.3 40.9-10.9-13.1-23.1 14.2 18.3-40.8-51 1.6-157.8-189.4 30.6-68.1 157.8 189.4z"/>
		<path fill-rule="evenodd" class="s2" d="m860.1 406.7l178.4-5.9 157.8 189.5-178.4 5.8zm158.4 91.7c1 0.3 1.9 1 2.4 1.9 3.2 5.7 14.9 26.9 18.6 33.6 0.7 1.3 2.1 2 3.5 2l33.5-1.1c0.7 0 1.4-0.5 1.7-1.2 0.2-0.7 0-1.5-0.6-2.1l-35.5-31.7c-0.4-0.4-0.6-0.9-0.6-1.5 0-0.5 0.2-1 0.6-1.4q1.7-1.2 2.5-3c3.5-7.8-6.7-20-22.7-27.2-16-7.2-31.9-6.7-35.4 1.1-3.5 7.9 6.6 20.1 22.7 27.3 3.1 1.4 6.2 2.5 9.3 3.3z"/>
		<path fill-rule="evenodd" class="s0" d="m1053.6 628.5l-33.6 74.9 23.1-14.2 10.9 13.1 33.6-74.9z"/>
		<path fill-rule="evenodd" class="s0" d="m863.6 1285.7c-3.1-0.8-6.2-1.9-9.4-3.3-16-7.2-26.2-19.4-22.6-27.2 3.5-7.9 19.3-8.4 35.4-1.2 16 7.2 26.2 19.4 22.6 27.2q-0.8 1.8-2.4 3c-0.4 0.4-0.6 0.9-0.7 1.4 0 0.6 0.3 1.1 0.7 1.5l35.5 31.8c0.6 0.5 0.8 1.3 0.5 2-0.2 0.7-0.9 1.2-1.7 1.2l-33.4 1.1c-1.5 0.1-2.8-0.7-3.5-2-3.8-6.7-15.5-27.9-18.6-33.6-0.5-0.9-1.4-1.6-2.4-1.9z"/>
		<path fill-rule="evenodd" class="s1" d="m1041.4 1377.6l-6.1 13.6-161.4 5.3-18.4 40.9 34-1.1 9.2-20.5 34-1.1-9.2 20.5 93.5-3.1-6.1 13.6-93.5 3.1-18.3 40.9-10.9-13.1-23.1 14.2 18.3-40.9-51 1.7-157.8-189.5 30.6-68.1 157.8 189.5z"/>
		<path fill-rule="evenodd" class="s2" d="m705.2 1194l178.4-5.8 157.8 189.4-178.4 5.9zm158.4 91.7c1 0.2 1.9 0.9 2.4 1.8 3.2 5.8 14.9 26.9 18.6 33.6 0.7 1.3 2.1 2.1 3.5 2l33.5-1.1c0.7 0 1.4-0.5 1.7-1.2 0.2-0.7 0-1.5-0.6-2l-35.5-31.8c-0.4-0.4-0.6-0.9-0.6-1.4 0-0.6 0.2-1.1 0.6-1.4q1.7-1.3 2.5-3.1c3.5-7.8-6.7-20-22.7-27.2-16-7.2-31.9-6.6-35.4 1.2-3.5 7.8 6.6 20 22.7 27.2 3.1 1.4 6.2 2.5 9.3 3.4z"/>
		<path fill-rule="evenodd" class="s0" d="m898.7 1415.8l-33.6 75 23.1-14.2 10.9 13.1 33.6-75z"/>
		<path fill-rule="evenodd" class="s0" d="m1070.4 235.2c-3.1-0.8-6.2-1.9-9.3-3.3-16.1-7.2-26.2-19.4-22.7-27.2 3.5-7.8 19.4-8.4 35.4-1.2 16 7.2 26.2 19.4 22.7 27.2q-0.8 1.8-2.4 3.1c-0.5 0.3-0.7 0.8-0.7 1.4 0 0.5 0.2 1 0.6 1.4l35.6 31.8c0.5 0.5 0.7 1.3 0.5 2-0.3 0.7-0.9 1.2-1.7 1.2l-33.5 1.1c-1.4 0.1-2.8-0.7-3.5-2-3.7-6.7-15.4-27.8-18.6-33.6-0.5-0.9-1.4-1.6-2.4-1.9z"/>
		<path fill-rule="evenodd" class="s1" d="m1248.3 327.1l-6.1 13.7-161.5 5.3-18.3 40.8 34-1.1 9.1-20.4 34-1.1-9.1 20.4 93.4-3.1-6.1 13.6-93.4 3.1-18.4 40.9-10.9-13.1-23.1 14.2 18.4-40.9-51 1.7-157.8-189.4 30.5-68.1 157.8 189.4z"/>
		<path fill-rule="evenodd" class="s2" d="m912 143.6l178.5-5.9 157.8 189.4-178.5 5.9zm158.4 91.7c1 0.2 1.9 0.9 2.4 1.8 3.2 5.8 14.9 26.9 18.6 33.7 0.7 1.2 2.1 2 3.6 2l33.4-1.1c0.8-0.1 1.4-0.5 1.7-1.3 0.3-0.7 0.1-1.5-0.5-2l-35.6-31.8c-0.4-0.3-0.6-0.9-0.6-1.4 0-0.6 0.3-1.1 0.7-1.4q1.6-1.2 2.4-3c3.5-7.9-6.7-20.1-22.7-27.2-16-7.2-31.9-6.7-35.4 1.1-3.5 7.9 6.7 20 22.7 27.2 3.1 1.4 6.3 2.6 9.3 3.4z"/>
		<path fill-rule="evenodd" class="s0" d="m1105.5 365.4l-33.6 74.9 23.1-14.2 10.9 13.1 33.6-74.9z"/>
		<path fill-rule="evenodd" class="s0" d="m915.5 1022.6c-3-0.8-6.2-1.9-9.3-3.4-16.1-7.1-26.2-19.3-22.7-27.2 3.5-7.8 19.4-8.3 35.4-1.1 16 7.2 26.2 19.4 22.7 27.2q-0.8 1.8-2.4 3c-0.5 0.4-0.7 0.9-0.7 1.4 0 0.5 0.2 1.1 0.6 1.4l35.6 31.8c0.5 0.5 0.7 1.3 0.5 2.1-0.3 0.7-0.9 1.2-1.7 1.2l-33.5 1.1c-1.4 0-2.8-0.7-3.5-2-3.7-6.7-15.4-27.9-18.6-33.6-0.5-1-1.4-1.6-2.4-1.9z"/>
		<path fill-rule="evenodd" class="s1" d="m1093.4 1114.5l-6.1 13.6-161.5 5.3-18.3 40.9 34-1.1 9.1-20.5 34-1.1-9.1 20.4 93.4-3-6.1 13.6-93.4 3.1-18.4 40.8-10.9-13-23.1 14.1 18.4-40.8-51 1.6-157.8-189.4 30.5-68.1 157.8 189.4z"/>
		<path fill-rule="evenodd" class="s2" d="m757.1 930.9l178.5-5.9 157.8 189.5-178.5 5.8zm158.4 91.7c1 0.3 1.9 1 2.4 1.9 3.2 5.7 14.9 26.9 18.6 33.6 0.7 1.3 2.1 2.1 3.6 2l33.4-1.1c0.8 0 1.5-0.5 1.7-1.2 0.3-0.7 0.1-1.5-0.5-2l-35.6-31.8c-0.4-0.4-0.6-0.9-0.6-1.5 0-0.5 0.3-1 0.7-1.4q1.6-1.2 2.4-3c3.5-7.8-6.6-20-22.7-27.2-16-7.2-31.9-6.7-35.4 1.2-3.5 7.8 6.7 20 22.7 27.2 3.1 1.4 6.3 2.5 9.3 3.3z"/>
		<path fill-rule="evenodd" class="s0" d="m950.6 1152.7l-33.6 74.9 23.1-14.1 10.9 13 33.6-74.9z"/>
		<path fill-rule="evenodd" class="s0" d="m1123.2-29.9c-3-0.8-6.1-2-9.3-3.4-16-7.2-26.2-19.4-22.7-27.2 3.6-7.8 19.4-8.3 35.4-1.1 16.1 7.1 26.2 19.3 22.7 27.2q-0.8 1.8-2.4 3c-0.4 0.3-0.7 0.8-0.7 1.4 0 0.5 0.3 1.1 0.7 1.4l35.5 31.8c0.6 0.5 0.8 1.3 0.5 2-0.2 0.8-0.9 1.2-1.7 1.3l-33.4 1.1c-1.5 0-2.8-0.8-3.5-2-3.8-6.8-15.5-27.9-18.7-33.7-0.5-0.9-1.3-1.6-2.4-1.8z"/>
		<path fill-rule="evenodd" class="s1" d="m1301.1 62l-6.1 13.6-161.4 5.3-18.4 40.9 34-1.2 9.2-20.4 34-1.1-9.2 20.4 93.5-3-6.1 13.6-93.5 3-18.3 40.9-10.9-13.1-23.1 14.2 18.3-40.8-51 1.6-157.8-189.4 30.6-68.1 157.8 189.4z"/>
		<path fill-rule="evenodd" class="s2" d="m964.9-121.6l178.4-5.9 157.8 189.5-178.4 5.8zm158.4 91.7c1 0.3 1.9 1 2.4 1.9 3.2 5.7 14.9 26.9 18.6 33.6 0.7 1.3 2.1 2 3.5 2l33.5-1.1c0.7 0 1.4-0.5 1.7-1.2 0.2-0.7 0-1.5-0.6-2l-35.5-31.8c-0.4-0.4-0.7-0.9-0.6-1.5 0-0.5 0.2-1 0.6-1.4q1.6-1.2 2.4-3c3.6-7.8-6.6-20-22.6-27.2-16.1-7.2-31.9-6.7-35.4 1.1-3.5 7.9 6.6 20.1 22.6 27.3 3.2 1.4 6.3 2.5 9.4 3.3z"/>
		<path fill-rule="evenodd" class="s0" d="m1158.4 100.2l-33.6 74.9 23.1-14.2 10.9 13.1 33.6-74.9z"/>
		<path fill-rule="evenodd" class="s0" d="m968.3 757.4c-3-0.8-6.1-1.9-9.3-3.3-16-7.2-26.2-19.4-22.7-27.2 3.6-7.9 19.4-8.4 35.5-1.2 16 7.2 26.1 19.4 22.6 27.2q-0.8 1.8-2.4 3c-0.4 0.4-0.7 0.9-0.7 1.4 0 0.6 0.3 1.1 0.7 1.5l35.5 31.8c0.6 0.5 0.8 1.3 0.5 2-0.2 0.7-0.9 1.2-1.7 1.2l-33.4 1.1c-1.5 0.1-2.8-0.7-3.5-2-3.8-6.7-15.5-27.9-18.7-33.6-0.5-0.9-1.3-1.6-2.4-1.9z"/>
		<path fill-rule="evenodd" class="s1" d="m1146.2 849.3l-6.1 13.6-161.4 5.3-18.4 40.9 34-1.1 9.2-20.4 34-1.2-9.2 20.5 93.5-3.1-6.1 13.6-93.5 3.1-18.3 40.9-10.9-13.1-23.1 14.2 18.3-40.9-51 1.7-157.8-189.5 30.6-68.1 157.8 189.5z"/>
		<path fill-rule="evenodd" class="s2" d="m810 665.7l178.4-5.8 157.8 189.4-178.4 5.9zm158.4 91.7c1 0.2 1.9 0.9 2.4 1.8 3.2 5.8 14.9 26.9 18.6 33.7 0.7 1.2 2.1 2 3.5 1.9l33.5-1.1c0.7 0 1.4-0.5 1.7-1.2 0.2-0.7 0-1.5-0.6-2l-35.5-31.8c-0.4-0.4-0.7-0.9-0.6-1.4 0-0.6 0.2-1.1 0.6-1.4q1.7-1.3 2.5-3c3.5-7.9-6.7-20.1-22.7-27.3-16.1-7.2-31.9-6.6-35.4 1.2-3.5 7.8 6.6 20 22.6 27.2 3.2 1.4 6.3 2.5 9.4 3.4z"/>
		<path fill-rule="evenodd" class="s0" d="m1003.5 887.6l-33.6 74.9 23.1-14.2 10.9 13.1 33.6-75z"/>
		<path fill-rule="evenodd" class="s0" d="m786.6-212.7c-3-0.9-6.1-2-9.3-3.4-16-7.2-26.2-19.4-22.7-27.2 3.5-7.8 19.4-8.4 35.4-1.2 16.1 7.2 26.2 19.4 22.7 27.2q-0.8 1.8-2.4 3.1c-0.4 0.3-0.7 0.8-0.7 1.4 0 0.5 0.2 1 0.7 1.4l35.5 31.8c0.6 0.5 0.8 1.3 0.5 2-0.2 0.7-0.9 1.2-1.7 1.2l-33.4 1.1c-1.5 0.1-2.9-0.7-3.6-2-3.7-6.7-15.4-27.8-18.6-33.6-0.5-0.9-1.3-1.6-2.4-1.8z"/>
		<path fill-rule="evenodd" class="s1" d="m964.5-120.9l-6.1 13.7-161.4 5.3-18.4 40.8 34-1.1 9.2-20.4 34-1.1-9.2 20.4 93.5-3.1-6.1 13.6-93.5 3.1-18.3 40.9-10.9-13.1-23.1 14.2 18.3-40.9-51 1.7-157.8-189.4 30.5-68.1 157.9 189.4z"/>
		<path fill-rule="evenodd" class="s2" d="m628.2-304.4l178.5-5.9 157.8 189.4-178.4 5.9zm158.4 91.7c1 0.3 1.8 0.9 2.4 1.9 3.1 5.7 14.8 26.8 18.6 33.6 0.7 1.2 2 2 3.5 2l33.4-1.1c0.8 0 1.5-0.5 1.7-1.2 0.3-0.8 0.1-1.6-0.5-2.1l-35.5-31.8c-0.4-0.3-0.7-0.9-0.7-1.4 0.1-0.5 0.3-1.1 0.7-1.4q1.6-1.2 2.4-3c3.5-7.8-6.6-20-22.6-27.2-16.1-7.2-31.9-6.7-35.4 1.1-3.6 7.9 6.6 20.1 22.6 27.2 3.2 1.5 6.3 2.6 9.4 3.4z"/>
		<path fill-rule="evenodd" class="s0" d="m821.8-82.6l-33.6 74.9 23.1-14.2 10.9 13.1 33.6-74.9z"/>
		<path fill-rule="evenodd" class="s0" d="m631.7 574.6c-3-0.8-6.1-1.9-9.3-3.3-16-7.2-26.2-19.4-22.7-27.3 3.5-7.8 19.4-8.3 35.4-1.1 16.1 7.2 26.2 19.4 22.7 27.2q-0.8 1.8-2.4 3c-0.4 0.4-0.7 0.9-0.7 1.4 0 0.6 0.2 1.1 0.7 1.4l35.5 31.8c0.6 0.6 0.8 1.4 0.5 2.1-0.2 0.7-0.9 1.2-1.7 1.2l-33.4 1.1c-1.5 0-2.9-0.7-3.6-2-3.7-6.7-15.4-27.9-18.6-33.6-0.5-1-1.3-1.6-2.4-1.9z"/>
		<path fill-rule="evenodd" class="s1" d="m809.6 666.5l-6.1 13.6-161.4 5.3-18.4 40.9 34-1.1 9.2-20.5 34-1.1-9.2 20.4 93.5-3-6.1 13.6-93.5 3.1-18.3 40.8-10.9-13-23.1 14.1 18.3-40.8-51 1.7-157.8-189.5 30.5-68.1 157.9 189.4z"/>
		<path fill-rule="evenodd" class="s2" d="m473.3 482.9l178.5-5.8 157.8 189.4-178.4 5.8zm158.4 91.7c1 0.3 1.8 1 2.4 1.9 3.1 5.8 14.8 26.9 18.6 33.6 0.7 1.3 2 2.1 3.5 2l33.5-1.1c0.7 0 1.4-0.5 1.6-1.2 0.3-0.7 0.1-1.5-0.5-2l-35.5-31.8c-0.4-0.4-0.7-0.9-0.7-1.5 0.1-0.5 0.3-1 0.7-1.3q1.6-1.3 2.4-3.1c3.6-7.8-6.6-20-22.6-27.2-16.1-7.2-31.9-6.7-35.4 1.2-3.6 7.8 6.6 20 22.6 27.2 3.2 1.4 6.3 2.5 9.4 3.3z"/>
		<path fill-rule="evenodd" class="s0" d="m666.9 704.7l-33.6 74.9 23.1-14.1 10.9 13 33.6-74.9z"/>
		<path fill-rule="evenodd" class="s0" d="m447.1-394.5c-3.1-0.8-6.2-1.9-9.4-3.3-16-7.2-26.1-19.4-22.6-27.2 3.5-7.8 19.3-8.4 35.4-1.2 16 7.2 26.2 19.4 22.6 27.2q-0.8 1.8-2.4 3.1c-0.4 0.3-0.6 0.8-0.6 1.4-0.1 0.5 0.2 1 0.6 1.4l35.5 31.8c0.6 0.5 0.8 1.3 0.6 2-0.3 0.7-1 1.2-1.7 1.2l-33.5 1.1c-1.4 0.1-2.8-0.7-3.5-2-3.7-6.7-15.4-27.8-18.6-33.6-0.5-0.9-1.4-1.6-2.4-1.9z"/>
		<path fill-rule="evenodd" class="s1" d="m625-302.6l-6.2 13.7-161.4 5.3-18.3 40.8 33.9-1.1 9.2-20.4 34-1.1-9.2 20.4 93.5-3.1-6.1 13.6-93.5 3.1-18.3 40.9-10.9-13.1-23.1 14.2 18.3-40.9-50.9 1.7-157.9-189.4 30.6-68.1 157.8 189.4z"/>
		<path fill-rule="evenodd" class="s2" d="m288.7-486.1l178.4-5.9 157.9 189.4-178.5 5.9zm158.4 91.7c1 0.3 1.9 0.9 2.4 1.9 3.2 5.7 14.9 26.8 18.6 33.6 0.7 1.2 2.1 2 3.5 2l33.5-1.1c0.8-0.1 1.4-0.5 1.7-1.2 0.2-0.8 0-1.6-0.5-2.1l-35.6-31.8c-0.4-0.3-0.6-0.9-0.6-1.4 0-0.6 0.2-1.1 0.7-1.4q1.6-1.2 2.4-3c3.5-7.9-6.7-20-22.7-27.2-16-7.2-31.9-6.7-35.4 1.1-3.5 7.9 6.6 20.1 22.7 27.2 3.1 1.5 6.3 2.6 9.3 3.4z"/>
		<path fill-rule="evenodd" class="s0" d="m482.2-264.3l-33.6 74.9 23.1-14.2 10.9 13.1 33.6-74.9z"/>
		<path fill-rule="evenodd" class="s0" d="m292.2 392.9c-3.1-0.8-6.2-1.9-9.4-3.3-16-7.2-26.1-19.4-22.6-27.3 3.5-7.8 19.3-8.3 35.4-1.1 16 7.2 26.2 19.4 22.7 27.2q-0.9 1.8-2.5 3c-0.4 0.4-0.6 0.9-0.6 1.4-0.1 0.6 0.2 1.1 0.6 1.4l35.5 31.8c0.6 0.6 0.8 1.4 0.6 2.1-0.3 0.7-1 1.2-1.7 1.2l-33.5 1.1c-1.4 0-2.8-0.7-3.5-2-3.7-6.7-15.4-27.9-18.6-33.6-0.5-1-1.4-1.6-2.4-1.9z"/>
		<path fill-rule="evenodd" class="s1" d="m470.1 484.8l-6.2 13.6-161.4 5.3-18.3 40.9 34-1.1 9.1-20.5 34-1.1-9.2 20.4 93.5-3-6.1 13.6-93.5 3.1-18.3 40.8-10.9-13-23.1 14.1 18.3-40.8-50.9 1.7-157.9-189.5 30.6-68.1 157.8 189.4z"/>
		<path fill-rule="evenodd" class="s2" d="m133.8 301.2l178.4-5.9 157.9 189.5-178.5 5.8zm158.4 91.7c1 0.3 1.9 1 2.4 1.9 3.2 5.8 14.9 26.9 18.6 33.6 0.7 1.3 2.1 2.1 3.5 2l33.5-1.1c0.8 0 1.4-0.5 1.7-1.2 0.2-0.7 0-1.5-0.5-2l-35.6-31.8c-0.4-0.4-0.6-0.9-0.6-1.5 0-0.5 0.2-1 0.7-1.4q1.6-1.2 2.4-3c3.5-7.8-6.7-20-22.7-27.2-16-7.2-31.9-6.7-35.4 1.2-3.5 7.8 6.6 20 22.7 27.2 3.1 1.4 6.3 2.5 9.3 3.3z"/>
		<path fill-rule="evenodd" class="s0" d="m327.3 523l-33.6 74.9 23.1-14.1 10.9 13 33.6-74.9z"/>
		<path class="s3" d="m1078.5-4.5v1099.9h-1325.1v-1099.9z"/>
	</g>
</svg>