<?xml version="1.0" encoding="UTF-8" standalone="no"?>
<!DOCTYPE svg PUBLIC "-//W3C//DTD SVG 1.1//EN" "http://www.w3.org/Graphics/SVG/1.1/DTD/svg11.dtd">
<svg width="100%" height="100%" viewBox="0 0 2160 2160" version="1.1" xmlns="http://www.w3.org/2000/svg" xmlns:xlink="http://www.w3.org/1999/xlink" xml:space="preserve" xmlns:serif="http://www.serif.com/" style="fill-rule:evenodd;clip-rule:evenodd;stroke-linejoin:round;stroke-miterlimit:2;">
    <g transform="matrix(0.998816,0,0,0.998816,0,53.2371)">
        <path d="M0,651.781C0,638.715 6.374,626.471 17.077,618.977C128.402,541.026 750.275,105.586 878.097,16.084C891.888,6.427 910.246,6.427 924.038,16.084C1082.22,126.847 2007.96,775.055 2145.48,871.35C2156.19,878.845 2162.56,891.089 2162.56,904.155C2162.56,927.543 2162.56,965.259 2162.56,988.647C2162.56,1001.71 2156.19,1013.96 2145.48,1021.45C2039.67,1095.55 1474.5,1491.28 1368.68,1565.38C1357.98,1572.87 1351.6,1585.12 1351.6,1598.18L1351.6,1810.48C1351.6,1814.21 1353.68,1817.63 1356.99,1819.36C1360.3,1821.08 1364.3,1820.82 1367.36,1818.68C1403,1793.72 1486.76,1735.07 1486.76,1735.07L1486.76,1629.73C1486.76,1616.66 1493.13,1604.42 1503.84,1596.92C1538.68,1572.53 1617.52,1517.32 1651.22,1493.73C1654.28,1491.59 1658.27,1491.32 1661.59,1493.05C1664.9,1494.77 1666.97,1498.19 1666.97,1501.93C1666.97,1537.25 1666.97,1608.88 1666.97,1608.88C1666.97,1608.88 2062.35,1332.04 2146.81,1272.9C2149.87,1270.76 2153.86,1270.5 2157.17,1272.22C2160.48,1273.94 2162.56,1277.37 2162.56,1281.1C2162.56,1304.33 2162.56,1343.27 2162.56,1367.21C2162.56,1380.27 2156.19,1392.52 2145.48,1400.01C2058.3,1461.06 1666.97,1735.07 1666.97,1735.07L1666.97,1977.43C1666.97,1980.09 1665.92,1982.63 1664.04,1984.51C1662.16,1986.39 1659.62,1987.44 1656.96,1987.44C1633.49,1987.44 1576.87,1987.44 1576.87,1987.44C1576.87,1987.44 1531.24,2051.34 1504.92,2088.2C1502.39,2091.74 1497.86,2093.24 1493.72,2091.91C1489.57,2090.59 1486.76,2086.73 1486.76,2082.38C1486.76,2014.83 1486.76,1861.26 1486.76,1861.26C1486.76,1861.26 1341.82,1962.74 1284.46,2002.9C1270.67,2012.56 1252.32,2012.56 1238.52,2002.9C1080.34,1892.14 154.601,1243.93 17.077,1147.64C6.374,1140.14 0,1127.9 0,1114.83L0,651.781ZM990.381,799.075C993.724,798.532 997.114,799.717 999.391,802.223C1023.81,829.081 1162.83,982.046 1204.58,1027.99C1211.36,1035.45 1222.63,1036.71 1230.88,1030.93C1277.76,998.104 1425.33,894.777 1472.27,861.907C1475.23,859.838 1476.84,856.339 1476.49,852.748C1476.15,849.157 1473.9,846.029 1470.6,844.561C1409.38,817.279 1192.85,720.799 1148.06,700.84C1143.52,698.815 1141.15,693.761 1142.5,688.974C1144.89,680.402 1146.12,671.541 1146.12,662.481C1146.12,585.19 1056.5,522.439 946.121,522.439C835.738,522.439 746.121,585.19 746.121,662.481C746.121,739.772 835.738,802.522 946.121,802.522C961.328,802.522 976.142,801.331 990.381,799.075Z" style="fill:rgb(32,127,223);"/>
    </g>
</svg>
