<svg xmlns="http://www.w3.org/2000/svg"><path d="M804.9380293840193 246.04501767100135 L 806.7868453194326 247.89384886520406" stroke-width='1' stroke='rgba(0,0,0,1)' fill='none' id='3263933a-c694-4a4d-ba0a-84ceb5c049aa' transform='matrix(1 0 0 1 0 0)'/><path d="M-0.06588762074102306 651.7562183985538 C-0.06588762074102306 638.6902392713616 6.3081099488811105 626.4462206011442 17.011105827000733 618.952201975746 C128.3360485125528 541.0012124706985 750.2088418558965 105.56140428490397 878.0307424760383 16.059440778653936 C891.8217582311652 6.402445391055892 910.1797295957904 6.402445391055892 923.9717829485833 16.059440778653936 C1082.153669206753 126.82239844303422 2007.8933019651213 775.03014534297 2145.4133227939583 871.3250681265727 C2156.1232838325136 878.8200633144802 2162.49340108012 891.0640819846976 2162.49340108012 904.1301221470464 L 2162.49340108012 988.6220052684987 C2162.49340108012 1001.6850547081631 2156.1232838325136 1013.9350548237494 2145.4133227939583 1021.4250451287971 C2039.6033852721384 1095.5250214139141 1474.433580134721 1491.2548835463097 1368.6136328471814 1565.3548598314267 C1357.913559504032 1572.8448501364744 1351.53355456102 1585.0948502520607 1351.53355456102 1598.1549089690407 L 1351.53355456102 1810.4547156597218 C1351.53355456102 1814.1846961636666 1353.613632705647 1817.6047401412493 1356.9235692603158 1819.3347206263225 C1360.2336278852983 1821.0546913456765 1364.2336279230408 1820.794681577598 1367.2935644753506 1818.6547889792819 C1402.9335794600738 1793.6947057359557 1486.693590016027 1735.0446807684934 1486.693590016027 1735.0446807684934 L 1486.693590016027 1629.7048360245462 C1486.693590016027 1616.6348896121608 1493.0635851933193 1604.3948992622938 1503.7735462318747 1596.8948991915265 C1538.6136344512374 1572.5048843129541 1617.4534789451404 1517.2948007842 1651.1534304349957 1493.7048347413015 C1654.213489057619 1491.5648200726716 1658.203479329642 1491.294800538874 1661.5234256500303 1493.024903094261 C1664.8334842750128 1494.744873813615 1666.9034305836067 1498.164795720884 1666.9034305836067 1501.9049080608618 C1666.9034305836067 1537.22485468319 1666.9034305836067 1608.8548602418764 1666.9034305836067 1608.8548602418764 C1666.9034305836067 1608.8548602418764 2062.283439197076 1332.014891809406 2146.7434009315084 1272.8749986732594 C2149.803459554132 1270.7349840046295 2153.793449826155 1270.4749742365511 2157.1032643105104 1272.194944955905 C2160.413322935493 1273.914915675259 2162.49340108012 1277.3449694185613 2162.49340108012 1281.074949922506 C2162.49340108012 1304.3048085401317 2162.49340108012 1343.244872384118 2162.49340108012 1367.1848140162563 C2162.49340108012 1380.244872733236 2156.1232838325136 1392.4948728488223 2145.4133227939583 1399.98486315387 C2058.2333903307363 1461.0349125580403 1666.9034305836067 1735.0446807684934 1666.9034305836067 1735.0446807684934 L 1666.9034305836067 1977.4047904771874 C1666.9034305836067 1980.0647026116603 1665.8535038158875 1982.6047416981269 1663.9734989153358 1984.4847465986786 C1662.0934940147845 1986.36475149923 1659.5534549283175 1987.4146782669495 1656.893420723531 1987.4146782669495 C1633.4234497989523 1987.4146782669495 1576.80345414752 1987.4146782669495 1576.80345414752 1987.4146782669495 C1576.80345414752 1987.4146782669495 1531.1735709044733 2051.3147032839483 1504.8536243670655 2088.174566912994 C1502.3235950463181 2091.7146060088967 1497.7935657066996 2093.2146060230502 1493.6535510191984 2091.8845278855 C1489.503526565978 2090.564703654297 1486.693590016027 2086.7045961959993 1486.693590016027 2082.3544984987034 C1486.693590016027 2014.8046931738286 1486.693590016027 1861.2347454357378 1486.693590016027 1861.2347454357378 C1486.693590016027 1861.2347454357378 1341.7535251718646 1962.7147268620147 1284.3935392790747 2002.8747614206372 C1270.6037442270845 2012.5347956914734 1252.2536463976899 2012.5347956914734 1238.4537195096664 2002.8747614206372 C1080.2736643062015 1892.1147506099228 154.53505388670987 1243.9050276967846 17.011105827000733 1147.6149877257278 C6.3081099488811105 1140.1149876549607 -0.06588762074102306 1127.8749973050938 -0.06588762074102306 1114.8049288223945 L -0.06588762074102306 651.7562183985538 C993.6576966920506 798.5070742754269 997.0477113724751 799.692071845202 999.3246889330223 802.1981143493167 C1023.7436955110873 829.0560857941448 1162.7636553189209 982.0210530577772 1204.5136557128583 1027.9650842530064 C1211.2936850737071 1035.4249231905821 1222.5637047112966 1036.684932968096 1230.8137047891405 1030.9050256869966 C1277.6935880439814 998.0790366077317 1425.2635357254585 894.752070300746 1472.20359964493 861.8820748734097 C1475.1635606103587 859.8131051273251 1476.7735459771125 856.3140816568098 1476.423570387873 852.7230782049576 C1476.0836045643528 849.1320747531054 1473.8336045431224 846.0040840009347 1470.5335556838595 844.536066408958 C1409.3135844030858 817.2540837296606 1192.7836751334285 720.7742244208753 1147.9937577186201 700.8152398575498 C1143.453718613282 698.79021542438 1141.0837234737323 693.736199263411 1142.4336990724075 688.9492119135552 C1144.8237137433964 680.377190348298 1146.053694223752 671.5162283506268 1146.053694223752 662.4562307065462 C1146.053694223752 585.1652143522573 1056.4336982609439 522.4142982328194 946.0547299342934 522.4142982328194 C835.6717332872922 522.4142982328194 746.0547890823254 585.1652143522573 746.0547890823254 662.4562307065462 C746.0547890823254 739.7471249905216 835.6717332872922 802.49706454745 946.0547299342934 802.49706454745 C961.2617002926243 802.49706454745 976.0757263113101 801.3060855323063 990.3146790823823 799.050104065707"  /><g id="lb_master_transform" transform="matrix(0.33411556 0 0 0.33411556 224.47644 133.8264)"></g> </svg>