<svg xmlns="http://www.w3.org/2000/svg"><path d="M-521.3732740862815 503.770005719216 L -520.3684097512214 504.7748700542761 L -520.2567547511007 503.770005719216 L -520.2567547511007 502.6534863840352 L -520.2567547511007 501.5369670488544 L -520.2567547511007 499.30392837849286 L -520.2567547511007 498.1874090433121 L -520.2567547511007 497.0708897081313 L -520.2567547511007 495.95440103897636 L -519.14023541592 493.7213623686148 L -518.0237160807392 491.4883236982532 L -518.0237160807392 490.37180436307244 L -516.9072120785713 488.1387656927109 L -515.7906927433905 487.0222463575301 L -514.6741734082098 484.7892383531944 L -512.4411347378482 482.5561996828328 L -511.32463073568033 481.43968034765203 L -509.09159206531876 479.20664167729046 L -507.9750880631509 476.9736030069289 L -506.8585687279701 474.7405950025932 L -504.62553005760856 473.6240756674124 L -503.5090107224278 471.39103699705083 L -502.392491387247 470.27451766187005 L -500.1594527168854 469.15799832668927 L -499.0429640477305 468.0414789915085 L -497.9264447125497 466.9249596563277 L -496.8099253773689 465.80847098717277 L -495.69340604218814 465.80847098717277 L -495.69340604218814 464.691951651992 L -494.57688670700736 463.5754323168112 L -493.4603673718266 462.4589129816304 L -492.3438480366458 462.4589129816304 L -491.227328701465 461.34239364644964 L -490.11080936628423 460.22587431126885 L -487.8778013619485 459.10935497608807 L -485.64476269158695 457.9928356409073 L -483.4117240212254 455.7598276365716 L -481.1786853508638 454.6433083013908 L -477.8291580113473 452.4102696310292 L -476.71263867616653 451.29375029584844 L -475.59611934098575 450.17723096066766 L -474.47960000580497 450.17723096066766 L -472.2465613354434 449.0607116254869 L -471.1300420002626 447.9441922903061 L -470.01352266508184 447.9441922903061 L -467.7805146607461 446.8276729551253 L -466.66399532556534 445.7111842859704 L -464.4309566552038 444.5946649507896 L -463.314437320023 443.4781456156088 L -461.0813986496614 443.4781456156088 L -459.96487931448064 442.361626280428 L -458.8483906453257 441.24510694524724 L -456.61535197496414 440.12858761006646 L -455.49883263978336 439.0120682748857 L -454.3823133046026 439.0120682748857 L -452.149274634241 437.8955489397049 L -451.0327552990602 436.7790296045241 L -448.7997472947245 436.7790296045241 L -447.68322795954373 435.6625409353692 L -445.45018928918216 434.5460216001884 L -443.2171506188206 434.5460216001884 L -442.1006312836398 433.4295022650076 L -439.86759261327825 432.31298292982683 L -437.63458460894253 432.31298292982683 L -435.40154593858097 431.19646359464605 L -433.1685072682194 430.07994425946526 L -430.93546859785783 430.07994425946526 L -429.81894926267705 428.9634249242845 L -427.58594125834134 428.9634249242845 L -425.35290258797977 427.8469055891037 L -422.0033445824374 427.8469055891037 L -418.6537865768951 426.7303862539229 L -416.42077857255936 425.613897584768 L -414.1877399021978 425.613897584768 L -411.9547012318362 424.4973782495872 L -408.6051432262939 424.4973782495872 L -405.2556158867774 423.3808589144064 L -400.78953854605425 423.3808589144064 L -395.2069725361762 423.3808589144064 L -388.5078565250915 423.3808589144064 L -382.9252905152134 423.3808589144064 L -376.22620517015457 422.26433957922563 L -370.64360849425066 422.26433957922563 L -367.29408115473416 422.26433957922563 L -365.0610424843726 422.26433957922563 L -362.828003814011 422.26433957922563 L -360.59496514364946 422.26433957922563 L -357.24543780413296 422.26433957922563 L -355.0123991337714 422.26433957922563 L -352.77936046340983 422.26433957922563 L -350.54632179304826 422.26433957922563 L -348.3132831226867 422.26433957922563 L -347.19679445353177 422.26433957922563 L -344.9637557831702 422.26433957922563 L -342.73071711280863 422.26433957922563 L -340.49767844244707 422.26433957922563 L -339.3811591072663 423.3808589144064 L -337.14815110293057 423.3808589144064 L -336.0316317677498 423.3808589144064 L -333.7985930973882 423.3808589144064 L -331.56555442702665 424.4973782495872 L -330.4490350918459 424.4973782495872 L -328.2159964214843 424.4973782495872 L -327.0995077523294 424.4973782495872 L -324.8664690819678 425.613897584768 L -323.749949746787 425.613897584768 L -321.51691107642546 425.613897584768 L -320.4003917412447 425.613897584768 L -319.2838724060639 425.613897584768 L -317.0508644017282 425.613897584768 L -315.9343450665474 425.613897584768 L -313.7013063961858 425.613897584768 L -311.46826772582426 425.613897584768 L -310.3517483906435 425.613897584768 L -308.1187097202819 425.613897584768 L -305.8857017159462 425.613897584768 L -303.65266304558463 425.613897584768 L -301.41962437522307 425.613897584768 L -300.3031050400423 425.613897584768 L -298.0700663696807 425.613897584768 L -294.7205390301642 425.613897584768 L -291.37098102462187 425.613897584768 L -288.0214230190795 425.613897584768 L -283.55537634438224 424.4973782495872 L -279.0892990036591 423.3808589144064 L -274.6232523289618 422.26433957922563 L -270.1571749882387 421.14782024404485 L -267.9241363178771 420.03130090886407 L -265.6911283135414 418.9147815736833 L -263.45808964317985 418.9147815736833 L -262.34157030799906 417.7982622385025 L -260.1085316376375 416.6817429033217 L -257.87549296727593 416.6817429033217 L -256.75897363209515 415.5652542341668 L -254.52596562775943 414.448734898986 L -253.40944629257865 414.448734898986 L -251.17640762221708 413.3322155638052 L -250.05991895306215 412.21569622862444 L -247.82688028270059 412.21569622862444 L -246.71033028149395 411.09917689344365 L -244.4772916111324 409.9826575582629 L -243.36080294197745 409.9826575582629 L -242.24425294077082 408.8661382230821 L -240.01127560246096 407.7496188879013 L -237.7782369320994 406.6330995527205 L -236.66168693089276 406.6330995527205 L -234.4286482605312 405.5166108835656 L -233.31215959137626 405.5166108835656 L -232.19560959016962 404.4000915483848 L -229.96263225185976 403.283572213204 L -228.84608225065313 403.283572213204 L -226.61304358029156 402.16705287802324 L -225.49655491113663 401.05053354284246 L -224.38000490993 399.9340142076617 L -223.26351624077506 399.9340142076617 L -222.14696623956843 398.8174948724809 L -221.0304775704135 397.7009755373001 L -218.79743890005193 396.5844562021193 L -217.680950230897 395.46793686693854 L -216.56440022969036 394.3514481977836 L -215.44791156053543 393.2349288626028 L -213.21487289017387 392.11840952742205 L -212.09832288896723 391.00189019224126 L -210.9818342198123 389.8853708570605 L -208.74879554945073 388.7688515218797 L -206.51575687908917 386.53581285151813 L -204.2827182087276 383.18628551200163 L -202.04967953836604 380.95324684164007 L -199.81670220005617 378.7202081712785 L -197.5836635296946 375.37065016573615 L -196.46711352848797 372.02112282621965 L -195.35062485933304 369.7880841558581 L -194.2340748581264 368.6715648206773 L -193.11758618897147 367.5550454854965 L -193.11758618897147 366.43852615031574 L -192.00103618776484 364.20551814598 L -192.00103618776484 363.08899881079924 L -190.8845475186099 360.8559601404377 L -189.76805884945497 359.7394408052569 L -189.76805884945497 357.5064021348953 L -189.76805884945497 356.38988279971454 L -188.65150884824834 354.1568747953788 L -188.65150884824834 351.92383612501726 L -187.5350201790934 350.8073167898365 L -187.5350201790934 348.5742781194749 L -186.41847017788677 347.4577587842941 L -186.41847017788677 346.34123944911335 L -186.41847017788677 344.10823144477763 L -186.41847017788677 342.99171210959685 L -186.41847017788677 341.87519277441606 L -186.41847017788677 340.7586734392353 L -186.41847017788677 339.6421541040545 L -186.41847017788677 338.5256347688737 L -186.41847017788677 337.40911543369293 L -186.41847017788677 336.2926114315251 L -186.41847017788677 335.1760920963443 L -186.41847017788677 334.0595727611635 L -186.41847017788677 332.9430534259827 L -186.41847017788677 331.82654942381487 L -187.5350201790934 331.82654942381487 L -188.65150884824834 330.7100300886341 L -189.76805884945497 330.7100300886341 L -189.76805884945497 329.5935107534533 L -190.8845475186099 329.5935107534533 L -192.00103618776484 329.5935107534533 L -193.11758618897147 329.5935107534533 L -194.2340748581264 328.4769914182725 L -195.35062485933304 328.4769914182725 L -197.5836635296946 327.36047208309174 L -198.70015219884954 327.36047208309174 L -200.9331908692111 327.36047208309174 L -203.16622953957267 327.36047208309174 L -204.2827182087276 327.36047208309174 L -205.39926820993423 327.36047208309174 L -206.51575687908917 327.36047208309174 L -207.6323068802958 327.36047208309174 L -208.74879554945073 327.36047208309174 L -209.86534555065737 327.36047208309174 L -210.9818342198123 327.36047208309174 L -212.09832288896723 327.36047208309174 L -213.21487289017387 327.36047208309174 L -214.3313615593288 327.36047208309174 L -215.44791156053543 327.36047208309174 L -216.56440022969036 327.36047208309174 L -217.680950230897 328.4769914182725 L -218.79743890005193 328.4769914182725 L -219.91398890125856 329.5935107534533 L -221.0304775704135 330.7100300886341 L -222.14696623956843 331.82654942381487 L -222.14696623956843 332.9430534259827 L -223.26351624077506 332.9430534259827 L -223.26351624077506 334.0595727611635 L -223.26351624077506 335.1760920963443 L -223.26351624077506 336.2926114315251 L -223.26351624077506 337.40911543369293 L -223.26351624077506 338.5256347688737 L -224.38000490993 339.6421541040545 L -224.38000490993 340.7586734392353 L -224.38000490993 342.99171210959685 L -224.38000490993 344.10823144477763 L -224.38000490993 346.34123944911335 L -224.38000490993 347.4577587842941 L -224.38000490993 348.5742781194749 L -224.38000490993 349.6907974546557 L -224.38000490993 350.8073167898365 L -224.38000490993 351.92383612501726 L -224.38000490993 353.04035546019804 L -224.38000490993 354.1568747953788 L -224.38000490993 355.27336346453376 L -224.38000490993 356.38988279971454 L -224.38000490993 357.5064021348953 L -224.38000490993 358.6229214700761 L -224.38000490993 359.7394408052569 L -224.38000490993 360.8559601404377 L -224.38000490993 361.97247947561846 L -224.38000490993 363.08899881079924 L -223.26351624077506 364.20551814598 L -223.26351624077506 365.32200681513496 L -222.14696623956843 365.32200681513496 L -222.14696623956843 366.43852615031574 L -221.0304775704135 366.43852615031574 L -221.0304775704135 367.5550454854965 L -219.91398890125856 367.5550454854965 L -218.79743890005193 368.6715648206773 L -217.680950230897 368.6715648206773 L -216.56440022969036 369.7880841558581 L -215.44791156053543 369.7880841558581 L -214.3313615593288 370.90460349103887 L -212.09832288896723 372.02112282621965 L -209.86534555065737 372.02112282621965 L -207.6323068802958 373.13764216140044 L -205.39926820993423 373.13764216140044 L -203.16622953957267 373.13764216140044 L -202.04967953836604 374.2541614965812 L -200.9331908692111 374.2541614965812 L -199.81670220005617 374.2541614965812 L -198.70015219884954 374.2541614965812 L -197.5836635296946 374.2541614965812 L -196.46711352848797 374.2541614965812 L -195.35062485933304 374.2541614965812 L -194.2340748581264 374.2541614965812 L -193.11758618897147 374.2541614965812 L -192.00103618776484 374.2541614965812 L -190.8845475186099 374.2541614965812 L -189.76805884945497 374.2541614965812 L -188.65150884824834 374.2541614965812 L -187.5350201790934 374.2541614965812 L -186.41847017788677 374.2541614965812 L -185.30198150873184 374.2541614965812 L -184.1854315075252 374.2541614965812 L -183.06894283837028 374.2541614965812 L -181.95239283716364 373.13764216140044 L -180.8359041680087 373.13764216140044 L -179.71941549885378 373.13764216140044 L -178.60286549764714 372.02112282621965 L -177.4863768284922 372.02112282621965 L -176.36982682728558 370.90460349103887 L -175.25333815813065 370.90460349103887 L -174.136788156924 369.7880841558581 L -173.02029948776908 369.7880841558581 L -171.90374948656245 368.6715648206773 L -170.7872608174075 368.6715648206773 L -169.67077214825258 367.5550454854965 L -168.55422214704595 367.5550454854965 L -167.43773347789102 366.43852615031574 L -166.32118347668438 366.43852615031574 L -165.20469480752945 365.32200681513496 L -162.97165613716788 364.20551814598 L -161.85510613596125 363.08899881079924 L -160.73861746680632 361.97247947561846 L -158.50557879644475 360.8559601404377 L -157.38909012728982 359.7394408052569 L -156.2725401260832 358.6229214700761 L -155.15605145692825 357.5064021348953 L -154.03950145572162 357.5064021348953 L -152.9230127865667 356.38988279971454 L -151.80646278536005 356.38988279971454 L -150.68997411620512 355.27336346453376 L -149.5734854470502 354.1568747953788 L -148.45693544584356 353.04035546019804 L -147.34044677668862 351.92383612501726 L -146.223896775482 351.92383612501726 L -145.10740810632706 350.8073167898365 L -143.99085810512042 349.6907974546557 L -143.99085810512042 348.5742781194749 L -142.8743694359655 347.4577587842941 L -141.75781943475886 347.4577587842941 L -140.64133076560393 346.34123944911335 L -139.524842096449 345.22472011393256 L -139.524842096449 344.10823144477763 L -138.40829209524236 344.10823144477763 L -137.29180342608743 342.99171210959685 L -136.1752534248808 341.87519277441606 L -136.1752534248808 340.7586734392353 L -135.05876475572586 339.6421541040545 L -133.94221475451923 338.5256347688737 L -132.8257260853643 337.40911543369293 L -132.8257260853643 336.2926114315251 L -131.70917608415766 335.1760920963443 L -130.59268741500273 334.0595727611635 L -129.4761987458478 332.9430534259827 L -128.35964874464116 331.82654942381487 L -127.24316007548623 330.7100300886341 L -127.24316007548623 329.5935107534533 L -126.1266100742796 328.4769914182725 L -125.01012140512466 327.36047208309174 L -123.89357140391803 326.2439680809239 L -122.7770827347631 325.1274487457431 L -121.66053273355647 324.0109294105623 L -120.54404406440153 322.89441007538153 L -118.31100539403997 320.6613867380329 L -117.19451672488503 319.5448674028521 L -114.96147805452347 318.4283480676713 L -113.84492805331683 316.1953247303227 L -112.7284393841619 316.1953247303227 L -111.61188938295527 315.0788053951419 L -110.49540071380034 313.9622860599611 L -109.3788507125937 312.84576672478033 L -108.26236204343877 311.7292627226125 L -107.14587337428384 311.7292627226125 L -107.14587337428384 310.6127433874317 L -106.0293233730772 310.6127433874317 L -106.0293233730772 309.4962240522509 L -104.91283470392227 309.4962240522509 L -104.91283470392227 308.3797047170701 L -103.79628470271564 308.3797047170701 L -102.6797960335607 307.26318538188934 L -101.56324603235407 307.26318538188934 L -101.56324603235407 306.1466813797215 L -100.44675736319914 306.1466813797215 L -100.44675736319914 305.0301620445407 L -99.3302073619925 305.0301620445407 L -98.21371869283757 305.0301620445407 L -97.09723002368264 303.9136427093599 L -95.98068002247601 303.9136427093599 L -94.86419135332108 302.79712337417914 L -93.74764135211444 302.79712337417914 L -92.63115268295951 302.79712337417914 L -91.51460268175288 301.68060403899835 L -90.39811401259794 301.68060403899835 L -89.28156401139131 300.5641000368305 L -88.16507534223638 300.5641000368305 L -87.04858667308145 300.5641000368305 L -87.04858667308145 299.4475807016497 L -85.93203667187481 299.4475807016497 L -84.81554800271988 299.4475807016497 L -83.69899800151325 298.33106136646893 L -82.58250933235831 298.33106136646893 L -81.46595933115168 298.33106136646893 L -80.34947066199675 297.21454203128815 L -79.23292066079011 297.21454203128815 L -78.11643199163518 297.21454203128815 L -78.11643199163518 296.0980380291203 L -76.99994332248025 296.0980380291203 L -75.88339332127362 296.0980380291203 L -75.88339332127362 294.9815186939395 L -74.76690465211868 294.9815186939395 L -73.65035465091205 293.8649993587587 L -72.53386598175712 293.8649993587587 L -71.41731598055048 292.74848002357794 L -70.30082731139555 292.74848002357794 L -69.18427731018892 291.63196068839716 L -68.06778864103399 291.63196068839716 L -68.06778864103399 290.5154566862293 L -66.95129997187905 290.5154566862293 L -65.83474997067242 290.5154566862293 L -65.83474997067242 289.3989373510485 L -64.71826130151749 289.3989373510485 L -64.71826130151749 288.28241801586773 L -63.60171130031085 288.28241801586773 L -62.48522263115592 288.28241801586773 L -62.48522263115592 287.16589868068695 L -61.36867262994929 287.16589868068695 L -60.252183960794355 286.0493946785191 L -59.13563395958772 284.9328753433383 L -58.01914529043279 283.8163560081575 L -58.01914529043279 282.69983667297674 L -56.902656621277856 282.69983667297674 L -56.902656621277856 281.58331733779596 L -55.78610662007122 281.58331733779596 L -55.78610662007122 280.4668133356281 L -55.78610662007122 279.3502940004473" stroke-width='2' stroke='rgba(0,0,0,1)' fill='none' id='9bfb3528-1431-42c9-9d9b-d30fb7cca9b3' transform='matrix(1 0 0 1 0 0)'/><path d="M-630.7918316077139 450.17723096066766 L -629.7869672726538 451.1820952957278 L -630.7918316077139 450.17723096066766 L -630.7918316077139 449.0607116254869 L -630.7918316077139 447.9441922903061 L -630.7918316077139 445.7111842859704 L -630.7918316077139 444.5946649507896 L -630.7918316077139 441.24510694524724 L -630.7918316077139 437.8955489397049 L -630.7918316077139 435.6625409353692 L -630.7918316077139 432.31298292982683 L -629.6753122725331 431.19646359464605 L -629.6753122725331 427.8469055891037 L -627.4422889351845 424.4973782495872 L -626.3257696000037 422.26433957922563 L -624.0927309296421 418.9147815736833 L -621.8597075922935 415.5652542341668 L -619.6266689219319 412.21569622862444 L -617.3936455845833 408.8661382230821 L -614.0440875790409 405.5166108835656 L -610.6945449065115 402.16705287802324 L -607.3450022339821 398.8174948724809 L -603.9954442284397 395.46793686693854 L -601.7624208910911 393.2349288626028 L -599.5293822207295 391.00189019224126 L -597.2963588833809 387.6523321866989 L -593.9468008778385 385.41929351633735 L -591.7137775404899 384.3028048471824 L -590.5972582053091 382.06976617682085 L -588.3642195349476 380.95324684164007 L -586.1311961975989 378.7202081712785 L -582.7816535250695 376.48716950091693 L -578.3155761843464 374.2541614965812 L -574.9660335118169 372.02112282621965 L -571.6164908392875 370.90460349103887 L -567.1504288315773 369.7880841558581 L -563.800870826035 368.6715648206773 L -560.4513281535055 368.6715648206773 L -559.3348088183247 367.5550454854965 L -557.1017854809761 367.5550454854965 L -554.8687468106145 367.5550454854965 L -552.6357234732659 367.5550454854965 L -551.5192041380851 367.5550454854965 L -549.2861654677235 367.5550454854965 L -547.0531421303749 367.5550454854965 L -544.8201034600133 367.5550454854965 L -541.4705607874839 367.5550454854965 L -539.2375221171224 367.5550454854965 L -537.0044987797737 367.5550454854965 L -534.7714601094121 367.5550454854965 L -532.5384214390506 367.5550454854965 L -529.1888787665212 367.5550454854965 L -526.9558554291725 368.6715648206773 L -524.722816758811 368.6715648206773 L -522.4897780884494 369.7880841558581 L -521.3732740862815 370.90460349103887 L -519.14023541592 370.90460349103887 L -516.9072120785713 372.02112282621965 L -514.6741734082098 373.13764216140044 L -512.4411347378482 374.2541614965812 L -510.20811140049955 374.2541614965812 L -507.9750880631509 375.37065016573615 L -505.74204939278934 376.48716950091693 L -503.5090107224278 377.6036888360977 L -501.2759720520662 377.6036888360977 L -499.0429640477305 378.7202081712785 L -496.8099253773689 379.8367275064593 L -494.57688670700736 379.8367275064593 L -492.3438480366458 380.95324684164007 L -490.11080936628423 380.95324684164007 L -487.8778013619485 382.06976617682085 L -486.76128202676773 382.06976617682085 L -483.4117240212254 383.18628551200163 L -481.1786853508638 383.18628551200163 L -477.8291580113473 383.18628551200163 L -472.2465613354434 383.18628551200163 L -466.66399532556534 383.18628551200163 L -459.96487931448064 383.18628551200163 L -454.3823133046026 383.18628551200163 L -447.68322795954373 382.06976617682085 L -440.98411194845903 380.95324684164007 L -436.51806527376175 379.8367275064593 L -434.2850266034002 379.8367275064593 L -432.0519879330386 378.7202081712785 L -429.81894926267705 377.6036888360977 L -426.46942192316055 376.48716950091693 L -424.236383252799 376.48716950091693 L -422.0033445824374 375.37065016573615 L -419.77030591207586 374.2541614965812 L -417.53729790774014 373.13764216140044 L -415.3042592373786 372.02112282621965 L -413.071220567017 370.90460349103887 L -410.83818189665544 369.7880841558581 L -408.6051432262939 368.6715648206773 L -407.48865455713894 366.43852615031574 L -405.2556158867774 365.32200681513496 L -404.1390965515966 364.20551814598 L -401.90605788123503 363.08899881079924 L -400.78953854605425 360.8559601404377 L -399.67301921087346 359.7394408052569 L -397.44001120653775 357.5064021348953 L -396.32349187135696 355.27336346453376 L -395.2069725361762 353.04035546019804 L -391.85741453063383 345.22472011393256 L -390.74089519545305 342.99171210959685 L -390.74089519545305 339.6421541040545 L -389.62437586027227 337.40911543369293 L -389.62437586027227 335.1760920963443 L -388.5078565250915 331.82654942381487 L -388.5078565250915 329.5935107534533 L -387.39136785593655 327.36047208309174 L -387.39136785593655 325.1274487457431 L -387.39136785593655 322.89441007538153 L -387.39136785593655 321.77790607321367 L -387.39136785593655 319.5448674028521 L -387.39136785593655 317.31182873249054 L -387.39136785593655 315.0788053951419 L -389.62437586027227 310.6127433874317 L -391.85741453063383 306.1466813797215 L -394.0904532009954 301.68060403899835 L -397.44001120653775 297.21454203128815 L -399.67301921087346 293.8649993587587 L -403.0225772164158 291.63196068839716 L -404.1390965515966 290.5154566862293 L -405.2556158867774 290.5154566862293 L -406.37213522195816 289.3989373510485 L -407.48865455713894 289.3989373510485 L -408.6051432262939 288.28241801586773 L -409.72166256147466 288.28241801586773 L -410.83818189665544 288.28241801586773 L -411.9547012318362 288.28241801586773 L -413.071220567017 288.28241801586773 L -414.1877399021978 288.28241801586773 L -415.3042592373786 288.28241801586773 L -417.53729790774014 287.16589868068695 L -418.6537865768951 287.16589868068695 L -419.77030591207586 287.16589868068695 L -422.0033445824374 288.28241801586773 L -423.1198639176182 288.28241801586773 L -425.35290258797977 288.28241801586773 L -427.58594125834134 289.3989373510485 L -428.70242992749627 289.3989373510485 L -429.81894926267705 290.5154566862293 L -430.93546859785783 290.5154566862293 L -432.0519879330386 291.63196068839716 L -434.2850266034002 292.74848002357794 L -435.40154593858097 293.8649993587587 L -436.51806527376175 294.9815186939395 L -437.63458460894253 296.0980380291203 L -438.75107327809746 297.21454203128815 L -439.86759261327825 299.4475807016497 L -440.98411194845903 300.5641000368305 L -443.2171506188206 302.79712337417914 L -443.2171506188206 303.9136427093599 L -444.3336699540014 306.1466813797215 L -445.45018928918216 307.26318538188934 L -446.56670862436295 309.4962240522509 L -447.68322795954373 310.6127433874317 L -447.68322795954373 312.84576672478033 L -448.7997472947245 313.9622860599611 L -448.7997472947245 316.1953247303227 L -449.91623596387944 318.4283480676713 L -449.91623596387944 321.77790607321367 L -449.91623596387944 324.0109294105623 L -449.91623596387944 327.36047208309174 L -449.91623596387944 330.7100300886341 L -449.91623596387944 334.0595727611635 L -448.7997472947245 336.2926114315251 L -446.56670862436295 339.6421541040545 L -445.45018928918216 340.7586734392353 L -445.45018928918216 342.99171210959685 L -444.3336699540014 344.10823144477763 L -443.2171506188206 345.22472011393256 L -440.98411194845903 347.4577587842941 L -439.86759261327825 348.5742781194749 L -438.75107327809746 349.6907974546557 L -437.63458460894253 350.8073167898365 L -436.51806527376175 350.8073167898365 L -435.40154593858097 351.92383612501726 L -434.2850266034002 353.04035546019804 L -432.0519879330386 353.04035546019804 L -430.93546859785783 354.1568747953788 L -429.81894926267705 354.1568747953788 L -428.70242992749627 354.1568747953788 L -427.58594125834134 355.27336346453376 L -425.35290258797977 355.27336346453376 L -424.236383252799 355.27336346453376 L -423.1198639176182 355.27336346453376 L -420.88682524725664 355.27336346453376 L -419.77030591207586 356.38988279971454 L -418.6537865768951 356.38988279971454 L -416.42077857255936 356.38988279971454 L -415.3042592373786 356.38988279971454 L -414.1877399021978 356.38988279971454 L -413.071220567017 356.38988279971454 L -410.83818189665544 356.38988279971454 L -409.72166256147466 355.27336346453376 L -407.48865455713894 355.27336346453376 L -406.37213522195816 354.1568747953788 L -405.2556158867774 354.1568747953788 L -403.0225772164158 353.04035546019804 L -400.78953854605425 353.04035546019804 L -398.5564998756927 351.92383612501726 L -396.32349187135696 350.8073167898365 L -391.85741453063383 348.5742781194749 L -389.62437586027227 346.34123944911335 L -386.27484852075577 345.22472011393256 L -382.9252905152134 342.99171210959685 L -380.69225184485185 340.7586734392353 L -378.4592131744903 338.5256347688737 L -377.34272450533535 337.40911543369293 L -376.22620517015457 336.2926114315251 L -372.8766471646122 332.9430534259827 L -371.76012782943144 331.82654942381487 L -369.5270891590699 330.7100300886341 L -368.4105698238891 328.4769914182725 L -367.29408115473416 326.2439680809239 L -365.0610424843726 325.1274487457431 L -363.9445231491918 324.0109294105623 L -362.828003814011 321.77790607321367 L -360.59496514364946 320.6613867380329 L -359.4784458084687 319.5448674028521 L -358.3619264732879 317.31182873249054 L -357.24543780413296 316.1953247303227 L -356.1289184689522 313.9622860599611 L -353.8958797985906 312.84576672478033 L -352.77936046340983 310.6127433874317 L -351.66284112822905 309.4962240522509 L -350.54632179304826 307.26318538188934 L -349.4298024578675 306.1466813797215 L -348.3132831226867 303.9136427093599 L -347.19679445353177 302.79712337417914 L -344.9637557831702 300.5641000368305 L -343.8472364479894 299.4475807016497 L -342.73071711280863 297.21454203128815 L -341.61419777762785 296.0980380291203 L -339.3811591072663 293.8649993587587 L -338.2646397720855 292.74848002357794 L -337.14815110293057 291.63196068839716 L -336.0316317677498 289.3989373510485 L -333.7985930973882 288.28241801586773 L -332.68207376220744 286.0493946785191 L -331.56555442702665 284.9328753433383 L -328.2159964214843 282.69983667297674 L -327.0995077523294 280.4668133356281 L -324.8664690819678 278.23377466526654 L -322.63343041160624 276.0007513279179 L -319.2838724060639 273.76771265755633 L -317.0508644017282 270.4181699850269 L -313.7013063961858 268.18513131466534 L -311.46826772582426 265.9521079773167 L -309.2352290554627 264.8355886421359 L -308.1187097202819 263.71906930695513 L -307.00219038510113 263.71906930695513 L -305.8857017159462 262.60254997177435 L -303.65266304558463 261.48603063659357 L -302.53614371040385 261.48603063659357 L -301.41962437522307 260.3695266344257 L -299.1865857048615 259.2530072992449 L -298.0700663696807 259.2530072992449 L -296.95354703449993 258.13648796406414 L -295.837058365345 257.01996862888336 L -293.60401969498344 257.01996862888336 L -292.48750035980265 255.9034646267155 L -291.37098102462187 255.9034646267155 L -290.2544616894411 255.9034646267155 L -289.1379423542603 254.78694529153472 L -288.0214230190795 254.78694529153472 L -286.90490368389874 253.67042595635394 L -285.7884150147438 253.67042595635394 L -284.671895679563 253.67042595635394 L -283.55537634438224 252.55390662117316 L -281.3223376740207 252.55390662117316 L -280.2058183388399 252.55390662117316 L -279.0892990036591 252.55390662117316 L -277.9727796684783 251.43738728599237 L -276.85626033329754 251.43738728599237 L -274.6232523289618 251.43738728599237 L -273.50673299378104 251.43738728599237 L -272.39021365860026 250.32088328382451 L -271.2736943234195 250.32088328382451 L -270.1571749882387 250.32088328382451 L -267.9241363178771 250.32088328382451 L -266.80761698269635 250.32088328382451 L -265.6911283135414 250.32088328382451 L -264.57460897836063 250.32088328382451 L -263.45808964317985 250.32088328382451 L -262.34157030799906 250.32088328382451 L -261.2250509728183 250.32088328382451 L -260.1085316376375 250.32088328382451 L -257.87549296727593 250.32088328382451 L -254.52596562775943 249.20436394864373 L -252.29292695739787 249.20436394864373 L -248.94336895185552 249.20436394864373 L -245.59384161233902 249.20436394864373 L -243.36080294197745 248.08784461346295 L -242.24425294077082 248.08784461346295 L -240.01127560246096 248.08784461346295 L -238.89472560125432 248.08784461346295 L -236.66168693089276 248.08784461346295 L -235.54519826173782 246.97132527828217 L -233.31215959137626 246.97132527828217 L -232.19560959016962 246.97132527828217 L -229.96263225185976 246.97132527828217 L -228.84608225065313 245.8548212761143 L -226.61304358029156 245.8548212761143 L -225.49655491113663 244.73830194093352 L -223.26351624077506 244.73830194093352 L -222.14696623956843 243.62178260575274 L -219.91398890125856 243.62178260575274 L -217.680950230897 242.50526327057196 L -215.44791156053543 242.50526327057196 L -214.3313615593288 241.38874393539118 L -212.09832288896723 240.27223993322332 L -209.86534555065737 240.27223993322332 L -207.6323068802958 239.15572059804254 L -205.39926820993423 238.03920126286175 L -203.16622953957267 238.03920126286175 L -199.81670220005617 235.8061625925002 L -197.5836635296946 234.68965859033233 L -196.46711352848797 233.57313925515155 L -195.35062485933304 232.45661991997076 L -193.11758618897147 231.34010058478998 L -192.00103618776484 231.34010058478998 L -190.8845475186099 230.22359658262212 L -188.65150884824834 229.10707724744134 L -187.5350201790934 227.99055791226056 L -186.41847017788677 226.87403857707977 L -185.30198150873184 225.757519241899 L -184.1854315075252 225.757519241899 L -183.06894283837028 224.64101523973113 L -180.8359041680087 222.40797656936957 L -179.71941549885378 221.29145723418878 L -177.4863768284922 219.05843389684014 L -175.25333815813065 216.82539522647858 L -174.136788156924 214.59237188912994 L -173.02029948776908 213.47585255394915 L -171.90374948656245 212.35933321876837 L -170.7872608174075 211.2428138835876 L -169.67077214825258 210.12630988141973 L -169.67077214825258 209.00979054623895 L -168.55422214704595 209.00979054623895 L -168.55422214704595 207.89327121105816 L -168.55422214704595 206.77675187587738 L -167.43773347789102 206.77675187587738 L -167.43773347789102 205.66024020720306 L -167.43773347789102 204.54372087202228 L -167.43773347789102 203.42720920334796 L -167.43773347789102 202.31068986816717 L -167.43773347789102 201.19417819949285" stroke-width='2' stroke='rgba(32,127,223,1)' fill='none' id='1c9d7652-b87b-4348-9a30-82ce091725d6' transform='matrix(1 0 0 1 0 0)'/><g id="lb_viewport_settings"> <g id="AMHCfj8AAAAAAAAAAMHCfj/reS9ENI2dwgAAAAAA"></g></g><g id="lb_master_transform" transform="matrix(0.9951592 0 0 0.9951592 701.90497 -78.77579)"></g> </svg>
