<svg xmlns="http://www.w3.org/2000/svg"><path d="M-661.807197458563 317.41886058517736 L -660.8303908668519 318.3956366593117 L -661.807197458563 314.92728356150604 L -661.807197458563 312.59979954719597 L -661.807197458563 309.69232898966334 L -661.3950881041997 306.7848584321307 L -660.9830397849892 303.8773878745976 L -660.2084426558085 300.21445470841064 L -659.8230666985438 297.88694017652386 L -659.1591873372565 295.21604187276984 L -658.8806228980807 297.69617480521674 L -658.2167435367934 300.8287430077281 L -657.1941605801869 303.9613417278156 L -656.1677324089293 306.678016396465 L -655.1986162465206 308.9253917722086 L -654.137886319168 310.7950205848365 L -656.4654008510548 311.5314402256943 L -659.6055984477149 311.5314402256943 L -663.215095337281 310.80646467606016 L -666.8246532620003 309.3565440943683 L -669.4955515657545 308.35306514071124 L -671.8955758596353 307.4525830080691 L -669.5947336896942 305.7050550194049 L -667.2710643724587 304.9266737107266 L -663.6691968770417 303.4767531290346 L -660.5365676393776 301.7254104432962 L -658.7356644092457 300.64179233349574 L -655.6030351715816 299.24912272549943 L -653.7143633911572 298.35245528993164 L -651.791328819485 297.7877580525841 L -652.8902057175834 299.6306534681132 L -654.9773027810404 302.0726394298146 L -656.728645466779 304.84656507215965 L -658.8043289565886 307.33429688117945 L -660.5556716423273 310.46689560126725 L -662.4444044579049 314.5915291837875 L -663.5280225677049 316.39246293149597 L -664.3064038763836 318.7161627663085 L -665.7562939404987 322.3180607793019 L -666.4011303339896 324.5654361550454 L -666.9925609684361 326.59531276238306" stroke-width='3' stroke='rgba(255,105,180,1)' fill='none' id='d9546984-af2c-42cf-8130-a675a0bbaf51' transform='matrix(1.0809894 0 0 1.0809894 -47.577724 -90.97441)'/><path d="M-261.0868764944566 212.953181866171 L -259.67177646956384 214.368281891064 L -261.0868764944566 211.28931781598354 L -261.5346303776836 207.29273599023472 L -260.2079702896493 204.62833793387676 L -257.2672050600018 202.51673525925054 L -254.4038018869237 202.14637395016928 L -253.6741418902626 205.9826469462703 L -253.6741418902626 209.44303495193375 L -254.56411071657095 213.42303047482443 L -250.45696371096068 211.4827839925591 L -248.36747102054915 209.3877523620028 L -246.27796307134935 207.29273599023472 L -242.74018249154074 204.2690392462968 L -239.4843232839545 202.89262024968832 L -236.33349031608503 202.89262024968832 L -236.33349031608503 206.23139571277673 L -236.89731780174185 210.92448018825883 L -239.30744341023689 214.52859072071175 L -241.71755375994366 218.13270125316444 L -244.28243399915317 222.61573324921267 L -248.12976961675588 226.45754518545888 L -251.33588517455627 230.940577181507 L -256.10082328403917 235.02007526275818 L -259.94817416042963 238.86187194021576 L -264.4367298378346 242.06246381665943 L -269.5001756223979 246.51232320699165 L -272.70629118019843 250.99535520303996" stroke-width='3' stroke='rgba(218,21,21,1)' fill='none' id='3a313d00-c9f3-4017-aeaa-8ba871bd2098' transform='matrix(1.1467444 0 0 1.1467444 -124.40581 -97.49982)'/><path d="M-527.7922970473852 513.9987997150738 L -526.9749142945097 514.8161824679496 L -527.7922970473852 518.1656084931553 L -526.9334103912871 520.4389847921667 L -525.6370237671028 522.0609939511919 L -524.3406981780699 523.6830031102173 L -522.6069336561029 525.4167676321842 L -520.525146698585 527.1505321541515 L -518.9031375395593 528.4469187783363 L -516.3135991542357 529.9252511900295 L -514.3691412882628 530.57338346697 L -512.424622387138 531.544086521162 L -507.38293574318766 532.3295478896473 L -505.4384168420628 532.3295478896473 L -503.008607448994 532.3295478896473 L -501.06408854786923 532.3295478896473 L -499.11956964674425 532.3295478896473 L -494.8186666401634 530.889484518131 L -492.36328351849124 529.4686472194306 L -491.1563439092664 528.2585032647362 L -489.860018320234 526.6333202778175 L -488.653078711009 525.4231763231232 L -487.3567531219765 523.7979323010525 L -486.1498135127516 522.5878493815101 L -485.24618809038566 521.0775345502743 L -484.20529461162664 518.6445513293124 L -483.6050138936958 515.579304970877 L -482.9823943102069 512.1213584457748 L -482.9823943102069 508.6633814030968 L -482.9823943102069 506.428304661839 L -482.9823943102069 504.6753751022069" stroke-width='6' stroke='rgba(255,204,0,1)' fill='none' id='a457811c-39a0-478e-92eb-15cd501b15b1' transform='matrix(0.8173955 0 0 0.8173955 54.165993 65.624054)'/><path d="M-502.999024930162 516.1348469225397 L -502.18161165971026 516.9522907105672 L -502.999024930162 514.4394124759019 L -502.999024930162 512.1596274859521 L -502.999024930162 509.53185057802705 L -502.999024930162 506.9040431525266 L -502.999024930162 504.66899692884436 L -502.999024930162 502.6606047413633 L -502.999024930162 500.61394351370444" stroke-width='6' stroke='rgba(255,204,0,1)' fill='none' id='09dc8e74-e89a-40a9-bb79-64bb9c4018ed' transform='matrix(0.8173955 0 0 0.8173955 54.165993 65.624054)'/><path d="M-512.8844001856304 518.2997027216552 L -512.0670174327548 519.1170854745305 L -512.8844001856304 516.8022052722968 L -512.8844001856304 513.5996908574684 L -512.8844001856304 510.9718834319672 L -512.8844001856304 507.95134532222426 L -512.8844001856304 505.3235378967232 L -512.8844001856304 503.3151762268184" stroke-width='6' stroke='rgba(255,204,0,1)' fill='none' id='032d387e-cd4f-4e78-bdae-9a1794a3fffc' transform='matrix(0.8173955 0 0 0.8173955 54.165993 65.624054)'/><path d="M-194.3592082279742 417.30479465820304 L -194.0395671478617 417.62443573831587" stroke-width='2.9076598' stroke='rgba(128,0,128,1)' fill='none' id='d368d321-18b7-4675-bd21-c0510391caf2' transform='matrix(0.6595721 0 0 0.6595721 209.60266 80.22776)'/><path d="M-192.92083862625407 394.4446285733186 L -192.6012128049286 394.764269653432 L -192.99701049334982 395.94667309518957 L -192.99701049334982 396.70704899284954 L -192.99701049334982 397.86445854071644 L -192.99701049334982 400.40407009359325 L -193.1605694363385 402.0284595734715 L -193.50392267219405 403.913804836818 L -193.6674968739702 405.53822483427103 L -194.02832142148912 407.70198193396175 L -194.17315783224115 409.4487468894227 L -194.17315783224115 410.3989115857481 L -194.17315783224115 411.15928748340815 L -194.17315783224115 411.9409036132392" stroke-width='2.9076598' stroke='rgba(128,0,128,1)' fill='none' id='d70dc065-b3eb-49e7-a786-185978003d06' transform='matrix(0.6595721 0 0 0.6595721 209.60266 80.22776)'/><path d="M-242.32574929538015 415.9051347119916 L -242.00612347405473 416.22477579210505 L -241.85379499865024 415.28208790164416 L -241.50044725699615 414.6915117910519 L -240.84744744682644 414.01728700749896 L -240.07582582279446 413.46168403780877 L -239.29420969296342 413.2606647715584 L -238.8122608904348 414.14964173009287 L -238.67741898548206 415.0998064264184 L -238.67741898548206 416.04997112274384 L -238.67741898548206 417.24610747323294 L -238.67741898548206 418.19627216955814 L -238.67741898548206 419.3749219495965 L -238.67741898548206 420.4000072924442 L -237.837132817794 419.2463208887223 L -237.25903839535943 418.23246601345886 L -236.4911551742597 417.002638260216 L -235.7232872119473 415.7727799893981 L -235.3699394702931 415.1822038788057 L -234.79184504785883 414.1683490035423 L -234.06892947346006 413.15452464585405 L -233.7155817318058 412.56394853526166 L -233.24361217628888 412.0907430179588 L -232.73419755629794 411.6699666944342 L -232.20480918349705 412.0957173826768 L -232.20480918349705 412.8561237979119 L -232.20480918349705 413.88117862318495 L -232.20480918349705 414.64158503842003 L -232.20480918349705 415.40196093608046 L -232.45076557887347 416.751661723759 L -232.45076557887347 417.77674706660736 L -232.45076557887347 418.5121595879513 L -231.6479397344462 418.8767530559777 L -231.14101229681467 418.24122455747164 L -230.4630338515418 417.425886507312 L -229.91991257000979 416.6105789747273 L -229.1969817368235 415.5967240994637 L -228.4178680481391 414.19084045628625 L -228.03830570959553 413.42921333805333 L -227.6849579679415 412.8386372274608 L -227.24921277389996 411.9471578277802 L -226.88461930587357 411.37904265235693 L -226.45511495591109 412.2680196108912 L -226.45511495591109 413.4466999085042 L -226.45511495591109 414.2070758061645 L -226.45511495591109 415.3857255862024 L -226.45511495591109 416.12113810754636 L -225.8370730278565 416.7117142181385 L -224.8119876850082 416.8203262674149 L -223.7869023421601 416.8203262674149 L -223.0265264445004 416.5656265868135 L -222.0139380485973 415.9862809438058 L -221.3796607706651 415.4781328031755 L -220.56558919986628 414.7989031373298 L -219.88761075459337 414.1196734714838 L -219.20963230932045 413.3043354213241 L -218.66649576900102 412.489027888739 L -218.08841660535376 411.33036712029855 L -217.68137319056052 410.3789512033999 L -217.29306756679182 408.83695917590904 L -217.03960384797574 408.07533205767567 L -216.81362120541013 407.04774427368125 L -217.55026968854014 407.133895387788 L -218.09465744943293 407.94795169979983 L -218.67398783365303 408.96055535449 L -219.39816988741285 409.97315900918 L -219.97750027163318 410.98573214629533 L -220.50440146207472 412.5252522502145 L -220.7591164014638 413.2856281478747 L -220.88646624176465 414.04600404553474 L -221.01381608206566 414.80637994319454 L -221.01381608206566 415.54179246453896 L -220.34209373965894 415.9238725030167 L -219.58170258321132 415.9238725030167 L -218.40305280317392 415.56925828200133 L -217.58898123237424 415.02488577989595 L -216.7749096615754 414.3456561140499 L -215.96083809077652 413.66642644820365 L -215.28285964550344 412.9872272999327 L -214.41510766035287 412.1182088354214 L -213.73712921508036 411.3028707852616 L -213.19399267476052 410.48756325267664 L -212.65087139322856 409.67225572009136 L -212.10773485290878 408.8569176699317 L -211.56461357137658 408.04161013734694 L -211.2199938561606 407.0140223533523 L -210.90285521719414 406.27610739086157 L -212.15892808490116 407.23252819005364 L -212.6670914843187 407.86680546798584 L -213.3762894087737 408.8007348144335 L -213.73088837100124 409.3900597044526 L -214.08548733322863 409.9793845944716 L -214.441322257242 411.1580343745097 L -214.441322257242 411.8934468958535 L -213.92316435202582 412.3841389836077 L -213.16278845436574 412.3841389836077 L -212.21262375804048 412.3841389836077 L -211.05518369259823 412.3841389836077 L -208.74033407928903 411.51515103667117 L -207.58289401384746 410.9358053936635 L -206.57030561794477 410.21162333990367 L -205.55771722204213 409.4874412861445 L -204.6899499781037 408.61845333920786 L -204.01197153283118 407.80311528904826 L -203.33399308755844 406.987807756463 L -202.79087180602647 406.17250022387816" stroke-width='2.9076598' stroke='rgba(128,0,128,1)' fill='none' id='785e5df0-69e2-4a79-8234-a2abde3ee94b' transform='matrix(0.6595721 0 0 0.6595721 203.2156 80.84095)'/><path d="M-271.71720190969717 419.7320099825082 L -271.3975608295843 420.0516510626213 L -271.61731788685887 419.2812959179498 L -270.9368370004393 418.4796907765212 L -270.42990956280806 417.8441622780154 L -269.9579552660787 417.3709567607125 L -269.6046227832117 416.7803806501203 L -269.2512597827698 416.18980453952815 L -268.8155298475157 415.29832513984707 L -268.5620508699124 414.5366980216141 L -268.45343882063594 413.5091102376192 L -268.45343882063594 412.77119527512866 L -268.9041528851948 412.21934596715823 L -269.5334557984089 412.54646385313606 L -270.02414788616306 413.7426002036247 L -270.5148399739167 415.1996923375822 L -270.6334312702047 416.2247776804302 L -270.7607811105053 416.98515357809026 L -270.7607811105053 417.85664396617335 L -270.7607811105053 418.520889502715 L -269.65329831527043 418.60331747267713 L -268.42969614731834 417.9765170006094 L -267.66932024965854 417.5957187002804 L -266.43699005526895 416.86030617893624 L -265.80271277733647 416.3521275207311 L -265.2133878873175 415.9975438172913 L -264.74140307301263 415.5243077824134 L -263.9423308903059 414.8413549724224 L -263.40668641463867 414.1845862417457 L -263.03336492017417 413.61650158389745 L -263.18818057793743 414.5928808771123 L -263.60770568088867 415.3282933984562 L -263.96228938432847 415.91761828847535 L -264.3169036053438 416.5069431784943 L -264.85254808101115 417.96403531245153 L -265.1072477616128 418.7244112101115 L -265.3794340126652 419.674575906437 L -265.6254056668292 421.06050105559143 L -265.75275550712973 421.8208769532516 L -265.75275550712973 423.17060825850535 L -265.75275550712973 424.0420986465885 L -265.75275550712973 424.68885761267904 L -265.0885099705883 424.68885761267904 L -264.4617400160957 424.36048850612787 L -263.8074737265654 423.70371977545125 L -263.28058779491107 423.0744473798119 L -262.7274567487925 422.3003385734207 L -262.3104340869878 421.56242361093024 L -261.9108979956341 420.9606170327532 L -261.53757650117 420.39250185732993 L -261.2816255999951 419.79570016144623 L -260.98194301390487 418.8742525031565 L -260.56492035210016 418.1363375406656 L -260.2565402571466 417.39842257817503 L -259.83951759534233 416.6605076156846 L -259.531106982814 415.9226231707687 L -259.2227268878609 415.1847082082778 L -259.0142002981714 414.44679324578703 L -258.82316027893233 413.77882456510036 L -258.740762826545 414.93748533354085 L -258.8768712108587 415.8876500298663 L -259.1490574619118 416.8378147261919 L -259.29389387266343 417.9952547916338 L -259.5835361765926 419.1526643395007 L -259.7196445609064 420.69218444342016 L -259.8557529452198 421.64234913974553 L -260.09296605537077 422.8209989197837 L -260.09296605537077 423.62132232306396 L -259.2439366024572 423.3129422281111 L -258.3836766819586 422.20420821230255 L -257.5496313583494 421.2403106072455 L -257.0427039207175 420.6047821087398 L -256.6893409202756 420.01420599814765 L -256.1824440002191 419.3786774996418 L -255.82905048220243 418.7881013890495 L -255.44948814365893 418.0264742708163 L -254.87139372122454 417.0126193955526 L -254.07605994145007 415.5617833644622 L -253.6415507091939 414.68776001765724 L -253.4242960930664 413.7962806179769 L -253.1683451918915 414.9237524248096 L -253.45801801339542 416.08119249025157 L -253.9462076600027 417.7055819701297 L -254.28956089585813 419.5909272334762 L -254.63291413171322 421.47627249682296 L -255.17479945145993 423.6400601140881 L -255.53563925776615 425.80384773135415 L -255.72542805643155 428.26478497598845 L -256.17618789735246 432.0929095787526 L -256.3659766960181 434.5538468233864 L -256.3659766960181 435.9360183108215 L -256.5557654946836 438.39695555545575 L -256.7367957493356 440.56074317272106 L -257.0801489851913 442.4460884360677 L -257.40604616817063 444.0705084335209 L -257.8942358147778 445.694897913399 L -258.47358145778543 446.85230746126626 L -259.052896583218 448.0097475267083 L -259.73212624906415 448.82380383871987 L -260.2053317663672 449.2957886530244 L -260.84086026487296 449.80271609065585 L -261.47638876337857 450.30961301071267 L -262.38660595408334 450.77158806043093 L -263.27808535376437 450.77158806043093 L -263.6152130043283 449.51926885444374 L -263.6152130043283 447.3542605341798 L -263.6152130043283 445.1892216963409 L -263.43540345267456 443.0241828585021 L -262.48899241806845 440.56199439329407 L -261.10181604834094 437.98368655537075 L -260.290231659901 436.52036883612203 L -258.7045689826445 434.14057782330184 L -257.1900427726159 432.0567157348521 L -255.6754860450124 429.972823128827 L -254.4755960328032 428.42957988076273 L -254.0036417360741 427.95637436345993" stroke-width='2.9076598' stroke='rgba(128,0,128,1)' fill='none' id='efaffb52-51a6-4a1b-a127-cdbe6f95b2a3' transform='matrix(0.6595721 0 0 0.6595721 209.60266 80.22776)'/><path d="M-276.021034470911 401.681352675896 L -275.7013933907983 402.0009937560089 L -276.07099174111767 402.53163334938324 L -276.36066456262125 403.6890734148252 L -277.0111771904318 405.31346289470366 L -277.5255814339284 407.19880815805 L -278.03998567742457 409.08415342139654 L -279.1212538757709 412.54271019141646 L -279.6356581192669 414.4280554547625 L -280.500922922059 417.8866122247824 L -281.32999388095 420.9943389530818 L -282.08786733746365 423.45527619771576 L -282.2239757217772 424.4054408940415 L -282.56732895763264 426.290786157388 L -282.85700177913634 427.44822622283016 L -282.9843516194372 428.2086021204902 L -283.0942148892869 428.94401464183414 L -283.18662210626064 428.29099957287735 L -283.05176494252004 427.3395836559787 L -282.402503535283 425.71394295552693 L -281.96924552360076 424.5552516695118 L -281.2837902724631 422.66865518559206 L -280.56336188042326 420.5036468653281 L -279.877906629286 418.61705038140855 L -279.5357740964289 416.7304538974884 L -279.02262107350566 414.84385741356874 L -278.69797511109965 413.2181861955422 L -278.4370498452067 411.4689493165098 L -278.2934646550279 410.3102580304944 L -278.2934646550279 409.5486309122609 L -278.2934646550279 408.7870037940277 L -278.2934646550279 407.7594160100335 L -278.8765334421804 406.96782063319085 L -279.75052627141014 406.5308394773638 L -280.512153389644 406.2761092791873 L -281.86438713604406 405.9115463287354 L -283.02304790448414 405.7667099179837 L -283.9744638213831 405.6306015336699 L -284.9258797382821 405.6306015336699 L -286.0845710242972 405.6306015336699 L -287.24323179273745 405.6306015336699 L -288.4019230787529 405.6306015336699 L -289.7853457867607 405.6306015336699 L -291.3273378142517 405.6306015336699 L -292.2787537311505 405.76545869740994 L -293.459905952335 406.0001998839893 L -294.2639830173351 406.1999679296662 L -293.41867670856624 405.54445041956285 L -292.1901001758964 404.77534649546453 L -291.03266011045446 404.34083726320904 L -289.31836585474935 403.48304926628214 L -287.15457823748386 402.761369653669 L -284.9908211377932 402.21949959271006 L -282.82703352052744 401.49781998009706 L -280.6632459032618 400.95594991913805 L -278.2023086586274 400.38783474371525 L -276.3169633952814 399.8734305002189 L -274.4316181319347 399.53007726436346 L -272.54627286858835 399.01564250329204 L -270.92185287113506 398.5274528566847 L -269.2974633912567 398.0392632100774 L -267.75797380491224 397.39375546456034 L -266.8078091085866 397.12156921350766 L -265.7827237657388 396.77446231593234 L -265.0473112443946 396.56346380267075 L -264.1583342858606 396.34370674539633 L -263.2693573273262 396.22508493153373" stroke-width='2.9076598' stroke='rgba(128,0,128,1)' fill='none' id='9c2be336-2665-42c5-bb6d-c712c1ffa2ee' transform='matrix(0.6595721 0 0 0.6595721 209.60266 80.22776)'/><path d="M-286.82768793727803 320.57256647220765 L -285.22731573381105 322.17293867567497 L -280.9513150537896 317.7031513879986 L -277.14418641156414 317.06551715487484 L -273.33705776933874 315.79021817105127 L -269.5299291271129 313.8835105396103 L -264.39748319398626 312.14562613864734 L -259.26503726085946 309.86382698048436 L -255.58293912754112 309.31371715535334 L -252.2571642116992 308.307216981014" stroke-width='1' stroke='rgba(0,0,0,1)' fill='none' id='999afe1d-790a-40a2-b93e-f83d718fa96b' transform='matrix(2.621349 0 0 2.621349 -1102.9777 -617.59296)'/><path d="M-251.91332268281047 323.0668900296949 L -250.31296573813114 324.6672622331625 L -253.33866132908014 325.84881122348713 L -257.0395125128555 330.6249034215619 L -258.09603099427375 334.30700155487995 L -259.1025006510373 338.2204229143436 L -259.1025006510373 341.4586734221924 L -259.1025006510373 344.7344300309562 L -255.47666166909113 341.7212466461707 L -252.70726794025018 337.8453313876217 L -250.53176149932494 333.46932461101994 L -249.03141065122594 330.4561107086585 L -247.61858421111947 327.1115980011475 L -247.16222437948676 323.4357254533351 L -247.16222437948676 319.8411517280095 L -250.0691455646105 318.0907551208837 L -251.41321590596914 321.1539568127479 L -251.41321590596914 324.6297561322476 L -248.17496539812066 326.18636613171833 L -245.67438573755152 323.6733047825621 L -242.84871759855054 320.3287615574751 L -240.61071116195973 318.02822460764224 L -237.40996675502538 316.7716939330642 L -236.60978065329175 320.47256037562784 L -237.57874420914078 324.3859512175152 L -238.08512234785155 329.5684154577201 L -238.08512234785155 333.9319405457345 L -238.08512234785155 338.3829595241657 L -238.08512234785155 342.06505765748364 L -235.4157499743792 339.9583378328814 L -233.0026794630146 336.0261481641728 L -230.63338641443465 332.6816354566618 L -229.13303556633565 329.66842155430055 L -228.63291353070662 325.7362624031674 L -228.63291353070662 321.9728959649388 L -229.05176726142474 318.79714545275493 L -232.45881048217723 318.87218817216 L -234.30298760037726 321.6103166443801 L -229.61440455150733 323.6733047825621 L -225.93229115940085 321.57281054346606 L -222.0688881070156 318.79091986724944 L -218.93065895453475 316.14028528544594 L -216.29255183768328 312.9895591855896 L -213.65444472083146 309.83883308573354 L -211.3726608214563 307.0819363042682" stroke-width='1' stroke='rgba(0,0,0,1)' fill='none' id='ce3027e0-4bbe-4d0d-8ed5-b5a9cef225d6' transform='matrix(2.621349 0 0 2.621349 -1102.9777 -617.59296)'/><path d="M-294.0731403156652 357.8312308805045 L -292.472768112198 359.431603083972 L -294.0731403156652 355.58071223774994 L -291.25371302095846 350.97963833808484 L -289.3532920101742 347.16625359277765 L -286.4588525136385 342.0900820698106 L -283.5644435346784 336.28872138815075 L -281.25765048176413 329.3621166439018 L -279.0884001439205 323.56075596224207 L -278.4569914963021 319.7473712169352 L -277.10042420756787 314.9837607074479 L -276.42528387352917 310.22018071553686 L -275.1562409927876 306.40676545265393 L -274.6561189571586 301.9432342680595 L -273.74339929389373 298.679989865459 L -274.2935396366004 303.41231985953766 L -275.5688386204239 307.2194790193392 L -277.4755157342897 311.02660766156424 L -278.83833912610567 315.7839620679695 L -280.0698759059329 322.7230790183822 L -281.3451748897564 326.53020766060735 L -282.53294946558765 332.4315744388473 L -283.1268214947149 337.5640203719745 L -283.1268214947149 342.06505765748364 L -283.1268214947149 345.62838138497625 L -280.4762174304876 347.6663756284065 L -276.1126923424733 346.5723510460743 L -272.7494113257171 343.2903383342292 L -269.21111201055135 338.5517522370689 L -265.93532488421187 335.2634834221418" stroke-width='1' stroke='rgba(0,0,0,1)' fill='none' id='735232e2-5fa9-4596-be29-7fd8cd7555b5' transform='matrix(2.621349 0 0 2.621349 -1102.9777 -617.59296)'/><path d="M-396.46568082215816 363.50130495017527 L -394.865308618691 365.1016771536425 L -398.54740675200884 363.50130495017527 L -401.3918279414669 366.0018846107444 L -402.94843794093777 369.6839827440626 L -405.2302065815251 373.5473857964476 L -407.5119752221125 378.6798317295748 L -408.6059998044449 381.77428341927094 L -409.6624877682868 385.456412070165 L -410.12510370300123 389.01973579765775 L -406.2992067515303 390.6451018958763 L -402.38578539206725 389.63863223911255 L -399.47260810386194 385.706442570404 L -397.47215047892155 382.6932591856182 L -395.7967660736257 377.5483010463276 L -393.5274791216255 372.4033734246131 L -392.4835033639473 368.7087630851316 L -391.48325929268935 365.60179918927156 L -391.1644421761276 370.47792800150216 L -391.1644421761276 374.3913188433901 L -391.1644421761276 377.71709375923126 L -391.1644421761276 381.3679418947162 L -388.51380759432413 383.5184544408908 L -385.18806319605835 383.5184544408908 L -381.86228828021655 382.0493688494127 L -378.724043868948 379.3987342676096 L -375.1857140362065 374.71016647752754 L -373.4165491198354 371.7532269853257 L -370.55964624179023 366.60826884603523 L -368.19660929629174 360.6943898616316 L -366.6087187814122 356.9997795221501 L -364.83332827953535 353.7427912226318 L -364.83332827953535 357.087303930143 L -366.0211028553664 362.2197498632697 L -367.7589872563285 367.35219579639704 L -369.3155972557992 371.03429392971503 L -369.86573759850637 374.71639206303325 L -370.37211573721714 377.9546425708824 L -367.34016404318623 379.1924354537912 L -362.8328401370196 375.90416663886424 L -360.7448581040865 372.20955629938237 L -358.5693516631613 367.8335495227805 L -357.0690160738505 363.31374392802655 L -355.6999365789524 360.1380239334192 L -356.9314733587797 365.1141588422299 L -357.43785149748993 368.79628749312417 L -357.9442296362012 372.70967833501146 L -357.9442296362012 376.273002062504 L -353.3806618374505 377.09819731777674 L -350.0548869216088 374.71016647752754 L -347.2292340413963 371.36562325244057 L -344.8599409928164 368.0211105449295 L -342.77192844230734 364.32650020544787 L -341.0465562475089 359.18154206615725 L -339.4586657326294 355.48693172667566 L -338.4146899749511 351.79232138719397 L -338.4146899749511 348.5290769845938 L -342.1030442113508 351.3984920688028 L -344.5348372555965 355.31188291069026 L -345.50383132902164 358.6376578265323 L -341.75920268246193 360.37557274507 L -335.77031149622934 357.37487104887214 L -331.6943535269441 354.6492547828153 L -327.61842607523533 351.92360799918333 L -322.48598014210785 349.0541929149742 L -319.535296752988 347.2787718955214 L -315.6718937006027 344.4968812193052" stroke-width='1' stroke='rgba(0,0,0,1)' fill='none' id='22dd3230-c8a0-48b0-9b25-b72b3e21263e' transform='matrix(2.621349 0 0 2.621349 -1102.9777 -617.59296)'/><path d="M-459.6240931901652 376.8293985082933 L -458.0237209866981 378.4297707117607 L -461.50577640927986 376.8293985082933 L -467.0695882792884 377.41704495191465 L -472.6771318357176 380.9115820630842 L -475.6528091195885 384.32488138691826 L -476.7093276010063 388.0069795202366 L -478.30969980447367 391.68910817113067 L -478.8598096296046 396.05260274156905 L -479.8663098039445 399.7347313924628 L -479.8663098039445 404.09822596290127 L -479.8663098039445 408.0116473223648 L -477.540748441785 410.98732460623575 L -473.6773759069755 409.21193410435916 L -471.13925962791586 406.0299274890939 L -466.1068503089449 400.30360952683935 L -463.56876454746146 397.12160291157414 L -460.84937386691075 393.0394193567835 L -458.94895285612694 389.22603461147634 L -456.9109586126963 384.4624241019896 L -454.8729948868416 379.6988135925022 L -453.51642759810727 374.93520308301504 L -451.47846387225263 370.1715925735278 L -449.3092135344091 364.3702624094439 L -447.8651218376817 358.5689017277847 L -445.0582067491383 347.472558503176 L -443.11402353435824 339.75203901906326 L -442.3450721716696 332.8254342748143 L -441.21357200599846 327.50542731953846 L -440.12580352674775 323.12942054293643 L -439.1693521770622 319.7848773178495 L -440.44465116088577 326.511439351362 L -442.3138221738366 334.2195076644636 L -443.5891211576604 338.026636306689 L -444.9519445494765 342.7839907130942 L -446.31476794129276 347.5413451194993 L -447.7650852235256 353.33644969807716 L -449.127908615342 358.0938041044827 L -450.49073200715816 362.8511585108878 L -451.85352488139836 367.6085129172931 L -453.30387268120705 373.4035869782953 L -454.53540946103465 380.3427039287078 L -455.21683641573065 385.100058335113 L -456.49210488197815 388.90718697733837 L -457.12976963267795 392.71434613713984 L -457.7236416618053 398.6157129153794 L -458.82392234721965 402.9792074858181 L -458.82392234721965 406.2174885112427 L -455.26056810215096 407.4177447756614 L -451.60971996666564 407.4177447756614 L -448.87159149444557 405.11720782582864 L -446.23346911880583 401.9664817259726 L -443.59537726074194 398.81575562611613 L -440.7384438651203 394.2584439304473 L -438.7379862401807 391.24523002808564 L -437.2376506508695 388.23204664329995 L -436.19364437561524 384.5374363038183 L -435.14966861793675 380.8428259643365 L -435.14966861793675 376.4668191877351 L -434.6057843783114 371.85323308190584 L -438.18162031196766 373.4223552875406 L -440.1570840421566 377.335776647004 L -441.08228539400955 380.4865027468603 L -437.5502116643496 380.72405155851095 L -433.6368208224622 377.7921059610603 L -430.6361191262642 375.77913612995695 L -427.635417430066 374.2662883344823 L -424.30964251422444 371.4218976626004 L -422.02787387363753 369.1213607127679 L -419.9211235314592 366.52700054112455 L -421.1026420042085 370.6717146091568 L -423.2031362433045 374.353812742475 L -424.8472706507679 378.7173378304894 L -425.8599964106134 383.2183751159984 L -426.78522828004253 386.5441500318401 L -426.78522828004253 390.01994935133985 L -423.07810573439735 390.8451446066127 L -419.8023491256335 387.5568757916855 L -417.25175115798675 384.99379613545113 L -413.8447079372339 380.9803686794072 L -410.7064635259652 378.3297340976039" stroke-width='1' stroke='rgba(0,0,0,1)' fill='none' id='c8c54e4f-39aa-4fd4-a71e-969f1212c24b' transform='matrix(2.621349 0 0 2.621349 -1102.9777 -617.59296)'/><path d="M-398.1035591265397 246.19903647376648 L -396.5031869230727 247.7994086772337 L -399.3975959020326 245.79895105229375 L -402.7421391271197 245.79895105229375 L -406.09290793771254 249.2559973213365 L -407.14939590155456 252.9381107134426 L -407.69953624426154 257.3016052838809 L -407.69953624426154 260.6273801997225 L -407.69953624426154 264.77835037083673 L -407.69953624426154 268.19164969467136 L -407.69953624426154 271.75497342216386 L -403.74860878388364 271.75497342216386 L -401.4230779392997 269.32940596342416 L -398.0160347185472 264.72833206375867 L -395.15910132292555 260.1710508856659 L -393.38996692413093 257.21411139346424 L -391.12067997213114 252.06915325417353 L -389.5765821788238 248.37454291469183 L -388.6201003115621 244.61117647646284 L -388.6201003115621 247.85566782860568 L -390.2642347190259 252.2191929166199 L -391.36448488686386 256.5827027458462 L -392.3772106467094 261.08374003135515 L -392.3772106467094 264.7345881668406 L -391.964613019073 268.2979118943333 L -388.488813699573 269.12310714960574 L -385.16303878373174 265.69107003410215 L -382.3936603136787 261.8151547755535 L -378.4927511603788 254.77603172856078 L -376.7235862440081 251.81909223635918 L -375.09196404270796 247.4430854597573 L -372.9102014987007 242.97953901637482 L -371.0409999681736 240.13513308570484 L -368.2090909848793 241.7104961356331 L -368.2090909848793 245.39260952773915 L -368.2090909848793 249.75611935696563 L -368.2090909848793 254.8885652900924 L -368.2090909848793 258.5706786821987 L -368.2090909848793 262.25277681551665 L -368.6717069195934 265.81610054300944 L -366.7587737026467 263.040465969875 L -364.67079166971376 259.34585563039343 L -363.12666335883017 255.65123003212355 L -361.5388033615266 251.9566349514299 L -359.26951640952694 248.08073495166914 L -356.9439855649427 244.73620698537013 L -354.7934730187688 241.64172477809763 L -352.1866311585377 239.00361766124578 L -351.36143590326554 242.1981059650986 L -351.36143590326554 246.56163105311276 L -351.8240518379797 250.47503715378815 L -351.8240518379797 254.03836088128077 L -349.5860148838126 257.1015625731445 L -346.0226911563198 257.1015625731445 L -342.6969162404783 257.1015625731445 L -339.0148181071605 256.5952149520098 L -335.8390675949766 254.0508578286562 L -331.5318169171226 249.04969850751814" stroke-width='1' stroke='rgba(0,0,0,1)' fill='none' id='a0dffe49-5709-42e0-a66c-070f3898a116' transform='matrix(2.621349 0 0 2.621349 -1102.9777 -617.59296)'/><path d="M-428.6981614969899 249.49980223606929 L -427.0977892935227 251.10017443953632 L -431.3237716664662 249.9999242716982 L -435.24967471451697 255.5012056284652 L -437.487711668684 260.08978258075507 L -439.7694803092714 265.2221979963061 L -440.91349268110594 270.3546439294331 L -442.01374284894416 274.71816901744734 L -442.01374284894416 279.21920630295654 L -442.01374284894416 282.6075117320399 L -438.6004740426856 283.52020087772894 L -434.9183453917916 283.52020087772894 L -431.23624725847344 283.52020087772894 L -426.59766725789353 280.8695968135018 L -422.7342642055083 278.0877061372852 L -418.73334895562834 274.6681507103693" stroke-width='1' stroke='rgba(0,0,0,1)' fill='none' id='388671f4-e439-4960-b594-c3abe2f5bf78' transform='matrix(2.621349 0 0 2.621349 -1102.9777 -617.59296)'/><path d="M-604.4639879306661 231.67067139244242 L -602.8636462447747 233.27104359590962 L -604.4639879306661 236.40301664530867 L -604.4639879306661 240.7665264745349 L -604.4639879306661 246.7554176607676 L -604.4639879306661 251.51277206717293 L -604.4639879306661 256.2701417323659 L -604.4639879306661 262.06521579336794 L -604.4639879306661 267.8603203719459 L -604.4639879306661 271.66744901417127 L -604.4639879306661 277.56881579241116 L -603.8325792830478 281.37597495221263 L -602.832396246942 285.0580730855308 L -600.0067128491534 287.4273661341106 L -596.3245841982591 287.4273661341106 L -592.4612421810259 285.14559749352355 L -590.0981442003757 282.7763044449437 L -587.7351072548774 280.40698087878724 L -584.3405762402883 276.32479732399634 L -579.8520511609428 269.87329020304935 L -577.951599632583 266.0599054577422 L -575.9136359067284 261.2962949482552 L -573.0191658926163 255.4949495253835 L -570.8499155547728 249.69360410251173 L -569.3120738645471 242.76699935826292 L -567.0053113292088 235.84037935522574 L -566.3739026815907 232.0269946099189 L -565.6987318299763 227.2633841004317 L -564.3421645412419 222.4997888497327 L -563.7107558936239 218.6864041044255 L -563.1669326891506 214.3103820690357 L -563.1669326891506 210.54700037201872 L -563.1669326891506 214.6917144400513 L -563.1669326891506 218.49885834106453 L -565.2548842045072 233.80865647366514 L -565.2548842045072 239.6037610522432 L -565.9800428456238 245.39885037203297 L -565.9800428456238 251.19395495061087 L -566.7552503113943 258.11431885056606 L -566.7552503113943 265.0346674917331 L -566.7552503113943 273.1678151210583 L -566.7552503113943 281.30093223280744 L -566.7552503113943 290.74062884378867 L -566.7552503113943 300.1803254547701 L -566.7552503113943 309.6200220657514 L -566.7552503113943 319.0597186767331 L -566.7552503113943 329.8934886773634 L -566.7552503113943 339.3331852883453 L -566.7552503113943 348.7728818993267 L -566.7552503113943 358.2125785103083 L -566.7552503113943 366.3456956220571 L -566.7552503113943 374.4788432513824 L -566.7552503113943 382.6119908807073 L -565.9425672622849 390.7451385100325 L -565.9425672622849 398.87825562178165 L -565.9425672622849 405.7986347805247 L -565.9425672622849 409.60576342274993 L -565.9425672622849 419.0454600337318 L -565.9425672622849 426.7534978292569 L -565.9425672622849 431.51085223566207 L -567.7179577641616 434.46153562478213 L -570.5874033659468 439.00633511428754 L -573.8693855602161 442.3696161310438 L -578.2454228543938 444.5451225719693 L -582.7089235214123 445.6328910512197 L -587.0849608155901 446.17674477326943 L -590.7796016726478 446.17674477326943 L -592.5549921745243 443.21983579864315 L -594.380431501055 436.4495115611347 L -595.0618279381752 431.6859010516475 L -595.0618279381752 425.8845403699879 L -595.0618279381752 420.08321020590427 L -595.0618279381752 408.98686698129546 L -595.0618279381752 403.185506299636 L -595.0618279381752 398.42192630772485 L -595.0618279381752 392.6205656260651 L -594.3866570865607 387.8569551165783 L -592.9425653898336 382.05559443491836 L -590.77331505199 376.2542642708348 L -588.7353513261355 371.490653761348 L -586.5661009882917 365.68929307968824 L -584.5281372624372 360.9257130877771 L -582.4901735365827 356.16210257829 L -579.5957035224706 351.0859005377467 L -577.6952519941108 347.2725157924397 L -574.8008430151506 342.1963442694725 L -572.9003914867908 338.3829595241657 L -567.0678113248744 328.68694579228776 L -564.3484511618996 324.6047622374968 L -559.4160174219329 316.2590596912718 L -555.8776875891913 310.8015405385008 L -553.1583274262167 306.71935698371004 L -551.3891625098458 303.76241749150813 L -549.4887109814861 299.9490327462007 L -545.8691433614094 294.87286122323394 L -542.9684477617916 289.55285426795797 L -540.0177643726718 283.63897528355443 L -537.1608920122023 278.4940476618399 L -535.6605259053152 275.48083375947834 L -533.8350865787845 272.63644308759626 L -534.9853550537009 277.05621206819455 L -535.5354648788319 281.4197371562088 L -536.5919833602499 285.10183528952666 L -536.5919833602499 288.7839334228451 L -536.5919833602499 293.1474585108594 L -536.5919833602499 298.2799044439866 L -536.5919833602499 302.6433990144246 L -536.5919833602499 306.5568203738881 L -533.4412267428177 308.7073024024862 L -529.2027626812866 307.2382168110084 L -527.1147501307779 303.54360647152635 L -525.4831584470537 299.16759969492455 L -524.3516277638068 294.02264155563427 L -523.2638592845561 289.6466347790322 L -522.720036080083 285.2706280024306 L -522.720036080083 281.5760176629487 L -522.720036080083 277.8814073234672 L -522.720036080083 273.36160172871297 L -524.1015667459923 270.14208901253323 L -527.1585123347741 268.38543630232573 L -530.1779823402173 270.2108756288565 L -531.1032142096464 273.86172376434206 L -531.1032142096464 277.1874986801834 L -531.1032142096464 280.5132735960253 L -531.1032142096464 283.75152410387466 L -527.4523355565851 284.576719359147 L -523.8015179386756 283.19512765808537 L -520.4757125052579 280.35073698620363 L -517.7376145506139 277.5938402047382 L -514.4118091171963 274.7494190152802 L -512.5864308258176 271.99252223381507 L -510.76099149928694 268.31668020357847 L -509.8920340400181 265.14092969139506 L -509.8920340400181 269.723265799391 L -509.8920340400181 275.7121569856238 L -510.52966827314174 279.51928562784906 L -511.1673330238417 283.3264142700743 L -512.3551075996725 289.31530545630693 L -512.9927418327962 293.12243409853266 L -512.9927418327962 298.25488003165947 L -513.4990894539311 301.5806549475012 L -510.46091217439425 303.6186186733554 L -507.6352592941819 301.1930817321916 L -505.6348016692416 298.17986782983024 L -504.04691115436196 294.4852574903488 L -502.41528895306203 290.1092507137466 L -500.87119115975474 286.4146403742651 L -499.78342268050403 282.0386030800871 L -498.69568471882917 277.6625963034855 L -497.6954406475711 273.14279070873124 L -497.6954406475711 269.37942427050194 L -496.4576477646623 266.3912347804677 L -495.1323609913365 262.7966610551422 L -495.1323609913365 267.0163873250039 L -495.63870861247125 271.51742461051305 L -496.1450867511821 275.43084596997625 L -496.1450867511821 279.34423681186354 L -496.1450867511821 282.5824873197128 L -493.6945253976912 285.00805477845256 L -489.8936223409714 283.67025579896324 L -487.61185370038424 280.9133590174982 L -484.50488980452405 278.23147443786195" stroke-width='1' stroke='rgba(0,0,0,1)' fill='none' id='27a8bd65-7103-4a29-abb9-09a4812bce63' transform='matrix(2.621349 0 0 2.621349 -1102.9777 -617.59296)'/><g id="lb_viewport_settings"> <g id="AMHCfj8AAAAAAAAAAMHCfj/reSpE0DS2wQAAAAAA"></g></g><g id="lb_master_transform" transform="matrix(0.9951592 0 0 0.9951592 681.90497 -22.775787)"></g> </svg>