<svg xmlns="http://www.w3.org/2000/svg"><path d="M-661.8067208830832 317.41889079859976 L -660.829914214559 318.395666949545 L -661.8067208830832 314.92731357899856 L -661.8067208830832 312.59982938166223 L -661.8067208830832 309.69235859549485 L -661.3946114963128 306.78488780932753 L -660.9825631447002 303.8774170231602 L -660.2079659546076 300.21448356893114 L -659.8225899670381 297.88696885401583 L -659.1587105535453 295.21607034023043 L -658.8801460924641 297.69620346770785 L -658.2162666789712 300.8287719165544 L -657.193683641952 303.9613708829799 L -656.1672553899792 306.6780457652603 L -655.1981391513622 308.92542131773047 L -654.1374091405971 310.79505027738026 L -656.4649238555124 311.53146997614806 L -659.605121699108 311.53146997614806 L -663.214618872514 310.806494369504 L -666.8241770810779 309.3565736737949 L -669.4950755948634 308.3530946412276 L -671.8951000774747 307.4526124377739 L -669.5942577266025 305.7050843116896 L -667.2705882266407 304.92670294180147 L -663.6687204479839 303.4767822460924 L -660.5360909639794 301.7254394226335 L -658.73518759223 300.641821227621 L -655.6025581082255 299.24915151010964 L -653.7138861792818 298.3524840040305 L -651.7908514563879 297.7877867222768 L -652.8897284408987 299.6306822827255 L -654.9768256684786 302.0726684364572 L -656.7281684919374 304.8465942969353 L -658.8038521449724 307.3343263015829 L -660.5551949684314 310.4669252680085 L -662.443927932533 314.5915591748776 L -663.5275461275455 316.39249306420595 L -664.3059274974337 318.71619308174667 L -665.7558176755638 322.31809137798246 L -666.4006541197626 324.5654669304526 L -666.9920848007174 326.59534369741374" stroke-width='3' stroke='rgba(255,105,180,1)' fill='none' id='d9546984-af2c-42cf-8130-a675a0bbaf51' transform='matrix(1.0809894 0 0 1.0809894 -47.577724 -90.97441)'/><path d="M-261.0863684075571 212.95320386473225 L -259.671268271385 214.36830400090423 L -261.0863684075571 211.28933968370347 L -261.53412232599385 207.29275754367575 L -260.2074621336352 204.62835927779759 L -257.26669667273495 202.5167564371215 L -254.40329327448717 202.14639509891612 L -253.67363322044787 205.98266839669003 L -253.67363322044787 209.44305667446758 L -254.5636021167411 213.42305251033292 L -250.4564547881571 211.48280587549266 L -248.36696193343437 209.38777408018944 L -246.27745381992213 207.29275754367575 L -242.73967296191313 204.2690605619636 L -239.48381349829629 202.89264145711786 L -236.33298028265494 202.89264145711786 L -236.33298028265494 206.23141718275724 L -236.8968078126495 210.92450202728907 L -239.30693361066938 214.5286128431581 L -241.71704414989995 218.13272365902714 L -244.28192459080378 222.6157560076074 L -248.12926051094905 226.45756824596174 L -251.33537632086836 230.94060059454205 L -256.1003148050513 235.0200989965922 L -259.9476659839861 238.8618959761571 L -264.4362220143573 242.06248810428542 L -269.4996681970945 246.51234784454095 L -272.7057840070138 250.99538019312126" stroke-width='3' stroke='rgba(218,21,21,1)' fill='none' id='3a313d00-c9f3-4017-aeaa-8ba871bd2098' transform='matrix(1.1467444 0 0 1.1467444 -124.40581 -97.49982)'/><path d="M-527.7918099333838 513.9988453869413 L -526.9744271162317 514.8162282040934 L -527.7918099333838 518.1656544926876 L -526.9329232097455 520.4390309704702 L -525.6365364836172 522.0610402570454 L -524.3402107926454 523.6830495436208 L -522.6064461343403 525.4168142019258 L -520.5246590131169 527.150578860231 L -518.9026497265417 528.4469655863593 L -516.3131111375847 529.9252981143044 L -514.3686531187054 530.5734304422119 L -512.4241340646696 531.5441335727365 L -507.38244702425646 532.3295950029883 L -505.4379279702206 532.3295950029883 L -503.008118386079 532.3295950029883 L -501.06359933204317 532.3295950029883 L -499.1190802780073 532.3295950029883 L -494.8181769332165 530.8895315182298 L -492.3627936184606 529.4686941077994 L -491.15585391432575 528.2585500579431 L -489.85952822335406 526.6333669432248 L -488.6525885192192 525.4232228933686 L -487.3562628282475 523.7979787434937 L -486.14932312411264 522.587895728794 L -485.2456976306885 521.0775807787919 L -484.2048040700768 518.6445973665072 L -483.6045233049416 515.5793507670304 L -482.98190367249174 512.121403970006 L -482.98190367249174 508.6634266554032 L -482.98190367249174 506.4283497383856 L -482.98190367249174 504.6754200409089" stroke-width='6' stroke='rgba(255,204,0,1)' fill='none' id='a457811c-39a0-478e-92eb-15cd501b15b1' transform='matrix(0.8173955 0 0 0.8173955 54.165993 65.624054)'/><path d="M-502.9985358664932 516.1348927623796 L -502.1811225317628 516.9523366146883 L -502.9985358664932 514.4394581824178 L -502.9985358664932 512.1596730131924 L -502.9985358664932 509.53189589862734 L -502.9985358664932 506.90408826648377 L -502.9985358664932 504.6690418670445 L -502.9985358664932 502.66064952162947 L -502.9985358664932 500.6139881330279" stroke-width='6' stroke='rgba(255,204,0,1)' fill='none' id='09dc8e74-e89a-40a9-bb79-64bb9c4018ed' transform='matrix(0.8173955 0 0 0.8173955 54.165993 65.624054)'/><path d="M-512.8839118993176 518.299748731732 L -512.0665290821655 519.1171315488841 L -512.8839118993176 516.8022511646154 L -512.8839118993176 513.599736497951 L -512.8839118993176 510.9719288658075 L -512.8839118993176 507.95139051853823 L -512.8839118993176 505.32358288639466 L -512.8839118993176 503.315221058558" stroke-width='6' stroke='rgba(255,204,0,1)' fill='none' id='032d387e-cd4f-4e78-bdae-9a1794a3fffc' transform='matrix(0.8173955 0 0 0.8173955 54.165993 65.624054)'/><path d="M-194.35871015260352 417.3048327263498 L -194.03906904735516 417.62447383159815" stroke-width='2.9076598' stroke='rgba(128,0,128,1)' fill='none' id='d368d321-18b7-4675-bd21-c0510391caf2' transform='matrix(0.6595721 0 0 0.6595721 209.60266 80.22776)'/><path d="M-192.92034043777426 394.4446648438119 L -192.6007145913145 394.7643059490604 L -192.99651231086 395.9467094837987 L -192.99651231086 396.7070854412524 L -192.99651231086 397.8644950801346 L -192.99651231086 400.4041068327185 L -193.1600712667107 402.0284964403338 L -193.50342452956625 403.91384185193806 L -193.66699874420556 405.5382619771308 L -194.0278233200986 407.70201924697267 L -194.17265974224006 409.44878433979386 L -194.17265974224006 410.3989491108374 L -194.17265974224006 411.1593250682911 L -194.17265974224006 411.9409412595859" stroke-width='2.9076598' stroke='rgba(128,0,128,1)' fill='none' id='d70dc065-b3eb-49e7-a786-185978003d06' transform='matrix(0.6595721 0 0 0.6595721 209.60266 80.22776)'/><path d="M-242.32523973316256 415.9051726700736 L -242.0056138867028 416.224813775322 L -241.85328539931993 415.28212581073126 L -241.49993762987958 414.69154965369785 L -240.84693776836025 414.017324817126 L -240.07531608365014 413.46172180374504 L -239.29369989235522 413.26070252168745 L -238.8117510519279 414.149679550128 L -238.67690913637125 415.09984432117153 L -238.67690913637125 416.05000909221496 L -238.67690913637125 417.2461455367645 L -238.67690913637125 418.19631030780806 L -238.67690913637125 419.3749601805315 L -238.67690913637125 420.40004560398904 L -237.83662290260554 419.2463591095445 L -237.2585284347116 418.2325041545547 L -236.4906451532279 417.0026763046019 L -235.72277713053268 415.77281793707164 L -235.36942936109233 415.1822417800382 L -234.79133489319838 414.1683868250485 L -234.0684192619517 413.154562387636 L -233.71507149251136 412.5639862306026 L -233.24310189988012 412.09078067608846 L -232.7336872398305 411.6700043194753 L -232.2042988254001 412.0957550411978 L -232.2042988254001 412.8561615162288 L -232.2042988254001 413.881216422109 L -232.2042988254001 414.6416228971401 L -232.2042988254001 415.4019988545938 L -232.45025524011749 416.7516997484091 L -232.45025524011749 417.77678517186666 L -232.45025524011749 418.5121977510414 L -231.64742933255866 418.8767912477383 L -231.1405018550638 418.2412626992565 L -230.46252335647694 417.425924584981 L -229.91940203223533 416.6106169882828 L -229.19647114220004 415.596762033293 L -228.4173573922485 414.1908782795614 L -228.03779502385748 413.42925110143597 L -227.68444725441714 412.83867494440267 L -227.24870202610987 411.94719547461875 L -226.88410852941297 411.3790802545209 L -226.4546041456756 412.2680572829614 L -226.4546041456756 413.4467376732622 L -226.4546041456756 414.20711363071587 L -226.4546041456756 415.3857635034392 L -226.4546041456756 416.12117608261406 L -225.83656216901989 416.71175223964735 L -224.81147674556235 416.8203642974647 L -223.7863913221047 416.8203642974647 L -223.02601536465113 416.56566459683427 L -222.01342688912166 415.9863189082687 L -221.37914956131158 415.4781707276795 L -220.56507792649631 414.7989410084209 L -219.88709942790945 414.1197112891623 L -219.20912092932258 413.3043731748868 L -218.66598434629236 412.4890655781886 L -218.08790513718702 411.3304047186348 L -217.6808616903851 410.3789887269196 L -217.292556036081 408.836996578171 L -217.03909229733358 408.0753694000456 L -216.81310963699707 407.04778153524467 L -217.54975817805484 407.1339326561265 L -218.0941459817568 407.94798903215303 L -218.67347641153367 408.9605927664712 L -219.3976585222407 409.9731965007893 L -219.97698895201756 410.98576971753005 L -220.50389018389342 412.5252899425126 L -220.75860514331248 413.28566589996626 L -220.8859549936277 414.04604185741994 L -221.01330484394293 414.8064178148736 L -221.01330484394293 415.5418303940485 L -220.34158244871446 415.9239104625715 L -219.58119123247207 415.9239104625715 L -218.40254135974874 415.56929621367067 L -217.58846972493347 415.0249236687574 L -216.77439809011832 414.3456939494988 L -215.96032645530317 413.6664642302403 L -215.2823479567162 412.98726502855914 L -214.4145959033283 412.11824649571065 L -213.7366174047413 411.30290838143515 L -213.1934808217111 410.48760078473697 L -212.65035949746948 409.6722931880387 L -212.10722291443926 408.8569550737632 L -211.56410159019765 408.041647477065 L -211.21948184788175 407.0140596122641 L -210.90234318397665 406.27614459174595 L -212.15841615045747 407.2325654661478 L -212.66657958983535 407.86684279395797 L -213.37577757005954 408.8007722138469 L -213.73037656017163 409.3900971502087 L -214.08497555028373 409.97942208657037 L -214.44081050227874 411.1580719592937 L -214.44081050227874 411.89348453846844 L -213.92265255631617 412.38417666480893 L -213.1622765988625 412.38417666480893 L -212.21211182781894 412.38417666480893 L -211.05467167135942 412.38417666480893 L -208.7398218760177 411.5151886495379 L -207.58238171955827 410.9358429609723 L -206.5697932440287 410.2116608502653 L -205.55720476849933 409.48747873955824 L -204.6894374563226 408.6184907242872 L -204.01145895773573 407.8031526100117 L -203.33348045914886 406.9878450133134 L -202.79035913490725 406.1725374166152" stroke-width='2.9076598' stroke='rgba(128,0,128,1)' fill='none' id='785e5df0-69e2-4a79-8234-a2abde3ee94b' transform='matrix(0.6595721 0 0 0.6595721 203.2156 80.84095)'/><path d="M-271.7166946587339 419.7320482415239 L -271.3970535534854 420.05168934677226 L -271.61681062804087 419.2813341415225 L -270.9363296881106 418.4797289370581 L -270.42940221061576 417.84420038857627 L -269.95744787677324 417.3709948340621 L -269.6041153661215 416.7804186770287 L -269.25075233789244 416.1898425199953 L -268.8150223683739 415.2983630502114 L -268.56154337083774 414.53673587208607 L -268.4529313130204 413.50914800728503 L -268.4529313130204 412.7712329867669 L -268.90364541302165 412.21938363540096 L -269.5329483757225 412.54650154710214 L -270.0236405020629 413.7426379916517 L -270.5143326284033 415.1997302401901 L -270.63292393401673 416.22481566364763 L -270.76027378433196 416.9851916211013 L -270.76027378433196 417.85668207771573 L -270.76027378433196 418.5209276664915 L -269.6527909020076 418.60335564293564 L -268.42918863783575 417.97655512157826 L -267.6688126803822 417.5957567913042 L -266.4364823890859 416.86034421212946 L -265.8022050612758 416.35216551396286 L -265.21288012491414 415.9975817826395 L -264.7408952734942 415.5243457105479 L -263.9418230279505 414.8413928468516 L -263.4061785101617 414.18462406452863 L -263.03285698634033 413.6165393620081 L -263.18767265627775 414.5929187320022 L -263.60719779221927 415.32833131117695 L -263.96178152354264 415.91765624753873 L -264.31639577244346 416.5069811839004 L -264.85204029023225 417.9640734324388 L -265.1067399908627 418.72444938989247 L -265.3789262633193 419.674614160936 L -265.6248979368254 421.0605394190753 L -265.7522477871406 421.820915376529 L -265.7522477871406 423.1706467879218 L -265.7522477871406 424.0421372445362 L -265.7522477871406 424.68889626148575 L -265.08800219836485 424.68889626148575 L -264.4612321945848 424.36052712911294 L -263.8069658536051 423.70375834678987 L -263.2800798805181 423.07448590166655 L -262.72694879090307 422.30037703440166 L -262.30992609630505 421.56246201388353 L -261.91038997353314 420.9606553883824 L -261.5370684497119 420.39254016828454 L -261.2811175284098 419.7957384254702 L -260.9814349187535 418.87429069472057 L -260.5644122241555 418.13637567420244 L -260.25603210495217 417.3984606536843 L -259.83900941035415 416.6605456331662 L -259.5305987735735 415.9226611302254 L -259.2222186543702 415.18474610970725 L -259.01369204828256 414.4468310891891 L -258.82265201402106 413.77886235597566 L -258.74025455515425 414.9375232155296 L -258.87636295017114 415.88768798657304 L -259.1485492226278 416.8378527576166 L -259.29338564476916 417.9952929140761 L -259.5830279714746 419.1527025529583 L -259.71913636649174 420.69222277794086 L -259.85524476150863 421.6423875489843 L -260.09245789031297 422.82103742170773 L -260.09245789031297 423.62136088792306 L -259.2434283706341 423.31298076871985 L -258.3831683824874 422.20424666572376 L -257.54912299329135 421.2403489848691 L -257.0421955157965 420.6048204363873 L -256.6888324875674 420.014244279354 L -256.1819355276498 419.37871573087216 L -255.8285572406321 418.78813957383875 L -255.4489948722411 418.02651239571344 L -254.87090040434714 417.0126574407236 L -254.07556656202973 415.5618212955436 L -253.6410572956056 414.6877978800085 L -253.42380266239343 413.79631841022456 L -253.16785174109134 414.9237903057184 L -253.45752458537413 416.0812304621779 L -253.94571427037124 417.7056200697933 L -254.2890675332269 419.59096548139746 L -254.63242079608244 421.4763108930017 L -255.17430615844114 423.6400986804209 L -255.5351459931229 425.80388646784024 L -255.72493480671278 428.26482390599494 L -256.1756794242915 432.0929488097913 L -256.36546823788126 434.553886247946 L -256.36546823788126 435.93605784407043 L -256.55525705147113 438.39699528222513 L -256.7362873203592 440.56078306964446 L -257.07964058321477 442.4461284812486 L -257.40553779182164 444.0705486064413 L -257.89372747681864 445.6949382140567 L -258.4730731653842 446.8523478529389 L -259.0523883363726 448.00978800939845 L -259.7316180556311 448.8238443854249 L -260.20482361014535 449.29582923684484 L -260.8403521586272 449.8027567143397 L -261.4758807071089 450.3096536742572 L -262.3860979693908 450.77162876030377 L -263.2775774391747 450.77162876030377 L -263.6147051162493 449.51930945583797 L -263.6147051162493 447.35430096532446 L -263.6147051162493 445.1892619572335 L -263.4348955504556 443.02422294914254 L -262.4884844414271 440.5620342903161 L -261.10130796261603 437.98372624964225 L -260.28972351035554 436.5204084153228 L -258.7040607084075 434.140617215363 L -257.1895343792812 432.05675496304457 L -255.67499279136632 429.9728621931488 L -254.47510268480164 428.42961882372856 L -254.00314835095912 427.9564132692143" stroke-width='2.9076598' stroke='rgba(128,0,128,1)' fill='none' id='efaffb52-51a6-4a1b-a127-cdbe6f95b2a3' transform='matrix(0.6595721 0 0 0.6595721 209.60266 80.22776)'/><path d="M-276.0205275583878 401.68138951546314 L -275.70088645313945 402.0010306207116 L -276.070484832523 402.53167025581365 L -276.3601576768058 403.6891104122732 L -277.0106703557704 405.3135000198886 L -277.525074639718 407.1988454314928 L -278.0394789236656 409.08419084309696 L -279.1207472070394 412.5427478850871 L -279.635151490987 414.42809329669126 L -280.50041636182044 417.8866503386814 L -281.3294873859071 420.9943773113631 L -282.0873609020174 423.4553147495178 L -282.2234692970344 424.40547952056136 L -282.56682255989006 426.2908249321656 L -282.85649540417285 427.44826508862513 L -282.9838452544881 428.2086410460788 L -283.09370853297713 428.94405362525356 L -283.1861157572174 428.2910385049456 L -283.05125858287204 427.3396225132303 L -282.4019971245791 425.7139816849433 L -281.9687390788266 424.55529030781213 L -281.283283773787 422.66869367553625 L -280.56285532509503 420.5036851850226 L -279.8774000200554 418.61708855274674 L -279.5352674602941 416.73049192047085 L -279.02211439701813 414.843895288195 L -278.697468409083 413.2182239423306 L -278.4365431226715 411.46898692574337 L -278.2929579212018 410.3102955486122 L -278.2929579212018 409.5486683704868 L -278.2929579212018 408.78704119236147 L -278.2929579212018 407.75945332756055 L -278.87602675420504 406.96785788846955 L -279.75001965216285 406.53087669827937 L -280.5116468302882 406.2761464800716 L -281.86388068302426 405.911583500952 L -283.0225415425781 405.7667470788107 L -283.97395753429333 405.6306386837937 L -284.9253735260085 405.6306386837937 L -286.08406490313973 405.6306386837937 L -287.24272576269357 405.6306386837937 L -288.4014171398248 405.6306386837937 L -289.7848399566208 405.6306386837937 L -291.32683210536936 405.6306386837937 L -292.27824809708454 405.76549585813893 L -293.4594004111513 406.0002370631772 L -294.2634775393817 406.2000051245632 L -293.4181711641405 405.54448756291185 L -292.18959453485934 404.77538357833373 L -291.0321543783998 404.3408743119095 L -289.31785998788763 403.48308624752895 L -287.15407220046836 402.7614065781653 L -284.9903149306265 402.2195364745953 L -282.8265271432072 401.49785680523166 L -280.662739355788 400.9559867016618 L -278.20180191763325 400.38787148156405 L -276.316456506029 399.8734671976164 L -274.43111109442475 399.5301139347607 L -272.5457656828206 399.0156791332357 L -270.9213455576279 398.5274894482387 L -269.2969559500125 398.0392997632416 L -267.7574662426073 397.3937919669637 L -266.80730147156373 397.12160569450714 L -265.7822160481062 396.77449876963647 L -265.04680346893144 396.5635002397827 L -264.1578264404909 396.34374316522724 L -263.26884941205026 396.22512134203646" stroke-width='2.9076598' stroke='rgba(128,0,128,1)' fill='none' id='9c2be336-2665-42c5-bb6d-c712c1ffa2ee' transform='matrix(0.6595721 0 0 0.6595721 209.60266 80.22776)'/><path d="M-286.82718187455725 320.572596933628 L -285.22680954524174 322.1729692629436 L -280.95080852896854 317.7031816237769 L -277.14367958736216 317.06554734051156 L -273.3365506457558 315.7902482564024 L -269.5294217041495 313.88354047502315 L -264.39697536742256 312.1456559373993 L -259.2645290306956 309.8638565998022 L -255.58243060782854 309.31374673141215 L -252.25665543045818 308.3072464779243" stroke-width='1' stroke='rgba(0,0,0,1)' fill='none' id='999afe1d-790a-40a2-b93e-f83d718fa96b' transform='matrix(2.621349 0 0 2.621349 -1102.9777 -617.59296)'/><path d="M-251.91281387453057 323.06692068726124 L -250.3124568040041 324.6672930165768 L -253.33815263288466 325.84884209981533 L -257.0390041076837 330.6249346734672 L -258.09552267218294 334.3070330963343 L -259.1019924080924 338.22045476353713 L -259.1019924080924 341.45870552603225 L -259.1019924080924 344.73446239239126 L -255.4761531410213 341.7212787706582 L -252.70675919440384 337.84536320731934 L -250.53125258240323 333.46935608660175 L -249.03090161632122 330.45614194729023 L -247.61807506511457 327.11162897677707 L -247.16171519759519 323.43575613990527 L -247.16171519759519 319.84118213191357 L -250.06863661131013 318.0907853871422 L -251.41270705836268 321.15398731988665 L -251.41270705836268 324.62978691271286 L -248.17445629586757 326.18639703459075 L -245.6738764386606 323.6733354878148 L -242.84820807745803 320.3287919997232 L -240.61020146487704 318.02825486898337 L -237.40945680624588 316.77172409559535 L -236.60927064158807 320.4725908291836 L -237.5782342736336 324.38598197880805 L -238.08461245216438 329.56844662654635 L -238.08461245216438 333.9319720576949 L -238.08461245216438 338.38299138614036 L -238.08461245216438 342.0650898090074 L -235.41523986878053 339.9583698187394 L -233.00216916765964 336.0261798408154 L -230.63287593276573 332.6816668703022 L -229.13252496668372 329.66845273099074 L -228.63240289172666 325.7362932706451 L -228.63240289172666 321.9729265364764 L -229.05125665538208 318.79717577456177 L -232.4583001440542 318.87221849986804 L -234.30247740727452 321.6103471874061 L -229.6138939897088 323.6733354878148 L -225.93178030805257 321.57284108354213 L -222.06837695186107 318.7909501885664 L -218.93014755259946 316.1403153983253 L -216.29204022829504 312.9895890507055 L -213.6539329039906 309.83886270308574 L -211.37214882518276 307.08196570482653" stroke-width='1' stroke='rgba(0,0,0,1)' fill='none' id='ce3027e0-4bbe-4d0d-8ed5-b5a9cef225d6' transform='matrix(2.621349 0 0 2.621349 -1102.9777 -617.59296)'/><path d="M-294.07263482270434 357.8312642718322 L -292.4722624933887 359.43163660114783 L -294.07263482270434 355.58074545210377 L -291.2532073062863 350.9796711906242 L -289.3527861460591 347.16628614544413 L -286.45834642191323 342.0901142233023 L -283.56393721534573 336.2887530854414 L -281.2571439810322 329.3621477965055 L -279.0878934726053 323.5607866586446 L -278.4564847753353 319.7474016134645 L -277.0999173799245 314.98379072938167 L -276.42477699279516 310.22021036287725 L -275.1557340122597 306.40679480011875 L -274.65561193730264 301.94326326452585 L -273.7428922022639 298.6800186053143 L -274.29303258823234 303.41234897152844 L -275.5683316723415 307.21950843071323 L -277.47500893614233 311.02663737231956 L -278.83783243512676 315.78399215282866 L -280.06936931179825 322.72310964891204 L -281.34466839590743 326.53023859051837 L -282.53244306514136 332.43160583282366 L -283.12631514096904 337.56405216955056 L -283.12631514096904 342.0650898090074 L -283.12631514096904 345.6284138167089 L -280.47571086830635 347.6664082204012 L -276.1121854371578 346.572383552038 L -272.74890415592336 343.2903705821052 L -269.2106045625168 338.55178411231725 L -265.93481717857935 335.26351503881074" stroke-width='1' stroke='rgba(0,0,0,1)' fill='none' id='735232e2-5fa9-4596-be29-7fd8cd7555b5' transform='matrix(2.621349 0 0 2.621349 -1102.9777 -617.59296)'/><path d="M-396.4651833810334 363.5013387873801 L -394.86481105171777 365.1017111166957 L -398.5469094745848 363.5013387873801 L -401.3913308877194 366.0019186445871 L -402.94794100959734 369.6840170674542 L -405.229709829616 373.54742042364563 L -407.51147864963457 378.67986676037253 L -408.6055033179978 381.77431869340717 L -409.66199136491866 385.4564476338527 L -410.12460733601176 389.01977164155426 L -406.2987100836842 390.6451378675863 L -402.38528841648144 389.6386681316768 L -399.47211089919267 385.7064781537528 L -397.4716531169428 382.69329453201976 L -395.79626857989933 377.54833598814537 L -393.52698144944975 372.40340796184944 L -392.4830056096764 368.70879733183494 L -391.4827614597622 365.60183319165276 L -391.16394431812955 370.47796238732747 L -391.16394431812955 374.3913535369519 L -391.16394431812955 377.7171287143223 L -391.16394431812955 381.3679771368992 L -388.5133095278884 383.5184898521832 L -385.1875648680964 383.5184898521832 L -381.8617896907259 382.04940414518063 L -378.72354503267513 379.39876935493953 L -375.1852149216901 374.710201196163 L -373.41604986619757 371.75326147143664 L -370.559146763494 366.60830292756225 L -368.19610963217383 360.6944234781095 L -366.6082189924273 356.99981284809496 L -364.8328283509394 353.7428242924571 L -364.8328283509394 357.0873372629703 L -366.0206030201732 362.2197835996972 L -367.75848755779714 367.3522299364241 L -369.3150976796751 371.0343283592912 L -369.86523806564355 374.7164267821583 L -370.37161624417433 377.9546775446534 L -367.33966431172007 379.1924705248987 L -362.83234005111115 375.90420145139217 L -360.7443578539859 372.2095908213776 L -358.5688512419854 367.83358370066003 L -357.06851553469255 363.313777750482 L -355.6994359321343 360.13805750614574 L -356.9309728088058 365.1141928062648 L -357.4373509873366 368.79632174671025 L -357.94372916586747 372.7097128963347 L -357.94372916586747 376.2730369040362 L -353.3801610082518 377.0982322241997 L -350.0543858308813 374.710201196163 L -347.2287327284679 371.36565770807135 L -344.859439493574 368.02114473755813 L -342.77142677887036 364.3265341075436 L -341.0460544483939 359.18157556366924 L -339.4581638086473 355.48696493365475 L -338.414187968874 351.7923543036402 L -338.414187968874 348.5291096444286 L -342.10254249531476 351.39852495427965 L -344.53433573078917 355.3119161039041 L -345.50332988041305 358.63769128127456 L -341.75870093938715 360.37560633647684 L -335.76980928220655 357.3749044043128 L -331.6938509924005 354.6492879239222 L -327.6179232201729 351.92364092595324 L -322.4854768834459 349.05422561610214 L -319.5347932622933 347.2788044570359 L -315.6713899061018 344.49691356206023" stroke-width='1' stroke='rgba(0,0,0,1)' fill='none' id='22dd3230-c8a0-48b0-9b25-b72b3e21263e' transform='matrix(2.621349 0 0 2.621349 -1102.9777 -617.59296)'/><path d="M-459.6236007156248 376.82943339357837 L -458.02322838630926 378.429805722894 L -461.5052840827092 376.82943339357837 L -467.069096390239 377.4170798834108 L -472.676640387628 380.9116172693798 L -475.65231790549717 384.3249168616255 L -476.7088364699964 388.0070152844926 L -478.30920879931205 391.6891442249381 L -478.85931866770204 396.0526391385082 L -479.86581892119 399.7347680789537 L -479.86581892119 404.0982629925238 L -479.86581892119 408.0116846597267 L -477.5402573761553 410.98736217759586 L -473.67688453754215 409.21197153610797 L -471.1387680588929 406.02996467061956 L -466.1063583441887 400.303646258065 L -463.5682723831179 397.1216393925765 L -460.84888148872255 393.03945551677515 L -458.94846032849546 389.2260704715951 L -456.91046592480325 384.4624595875123 L -454.8725020386894 379.69884870342946 L -453.5159346432787 374.93523781934664 L -451.4779707571648 370.1716269352638 L -449.30872024873804 364.37029631498126 L -447.86462843845186 358.56893517712035 L -445.05771312918125 347.4725910799293 L -443.1135297615165 339.75207098869856 L -442.3445783383597 332.8254656997626 L -441.213078083711 327.5054583261376 L -440.12530951892154 323.1294512054201 L -439.16885809402345 319.78490771732845 L -440.4441571781326 326.5114702797972 L -442.3133283380695 334.21953919903734 L -443.58862742217866 338.0266681406437 L -444.9514509211632 342.78402292115277 L -446.31427442014774 347.5413777016619 L -447.7645918164292 353.33648273594906 L -449.1274153154136 358.09383751645817 L -450.49023881439814 362.85119229696727 L -451.8530317958042 367.6085470774764 L -453.303379709664 373.4036215941852 L -454.5349165863356 380.34273909026854 L -455.216343594617 385.10009387077764 L -456.4916121611478 388.907222812384 L -457.12927696199154 392.71438227156875 L -457.7231490378193 398.615749513874 L -458.82342980975625 402.97924442744414 L -458.82342980975625 406.21752570751767 L -455.2600752844762 407.41778206632057 L -451.6092268618994 407.41778206632057 L -448.87109817436135 405.11724493558074 L -446.23297559126775 401.966518587961 L -443.5948835257524 398.8157922403412 L -440.7379499054704 394.2584801862992 L -438.7374921232206 391.24526604698775 L -437.23715641592776 388.2320824252547 L -436.19315005857595 384.53747179524015 L -435.1491742188025 380.8428611652256 L -435.1491742188025 376.46685404450807 L -434.60528993640776 371.853267575881 L -438.18112615125676 373.42238990490637 L -440.15659003679013 377.3358115721092 L -441.081791461398 380.486537919729 L -437.54971745398666 380.7240867500601 L -433.6363263043622 377.7921409220502 L -430.6356243721982 375.77917093265285 L -427.6349224400342 374.2663230182126 L -424.3091472626637 371.4219321226565 L -422.02737844264516 369.12139499191665 L -419.92062793479874 366.5270346162606 L -421.10214650045884 370.6717490102209 L -423.20264090473154 374.35384743308794 L -424.84677544148474 378.7173728642365 L -425.85950128096795 383.21841050369335 L -426.78473322315426 386.54418568106377 L -426.78473322315426 390.0199852738899 L -423.0776103859922 390.84518059405343 L -419.80185351963314 387.5569115205469 L -417.2512553514149 384.9938316627596 L -413.8442118627428 380.98040389111236 L -410.705967204692 378.3297691008712" stroke-width='1' stroke='rgba(0,0,0,1)' fill='none' id='c8c54e4f-39aa-4fd4-a71e-969f1212c24b' transform='matrix(2.621349 0 0 2.621349 -1102.9777 -617.59296)'/><path d="M-398.1030618142129 246.19906108668 L -396.50268948489736 247.79943341599557 L -399.39709869146486 245.79897563374567 L -402.7416421795565 245.79897563374567 L -406.0924112536434 249.25602217463995 L -407.14889930056427 252.93813585629619 L -407.6990396865327 257.30163076986634 L -407.6990396865327 260.62740594723675 L -407.6990396865327 264.7783764447707 L -407.6990396865327 268.19167603701646 L -407.6990396865327 271.75500004471803 L -403.74811191546587 271.75500004471803 L -401.42258088800963 269.32943239523894 L -398.0155373993375 264.7283581337593 L -395.1586037790555 260.1710765972958 L -393.38946924114146 257.2141368725694 L -391.12018211069187 252.06917832869505 L -389.57608419596136 248.3745676986805 L -388.6196022534849 244.6112009645118 L -388.6196022534849 247.85569257179145 L -390.2637367902381 252.21921800294 L -391.3639870445967 256.58272817529934 L -392.3767128840799 261.0837658147562 L -392.3767128840799 264.73461423733306 L -391.9641152239981 268.2979382450346 L -388.4883156311719 269.12313356519803 L -385.1625404538015 265.6910961798095 L -382.3931617659732 261.8151806164706 L -378.49225230591776 254.7760570159429 L -376.72308725042524 251.81911729121651 L -375.0914649208195 247.44311017049893 L -372.90970220524525 242.97956337611686 L -371.04050052772993 240.13515722177146 L -368.2085913217428 241.7105203955814 L -368.2085913217428 245.39263407723763 L -368.2085913217428 249.756144249597 L -368.2085913217428 254.88859058632386 L -368.2085913217428 258.5707042679802 L -368.2085913217428 262.25280269084726 L -368.6712072928359 265.81612669854877 L -366.75827392546137 263.0404919071468 L -364.6702917283362 259.34588127713226 L -363.12616329602736 255.65125538832854 L -361.53830317385916 251.95666001710322 L -359.2690160434096 248.08075971255352 L -356.94348501595323 244.73623148325112 L -354.79297230066925 241.64174903263802 L -352.1861302354441 239.0036417083336 L -351.3609349152807 242.19813026339102 L -351.3609349152807 246.56165569453952 L -351.8235508863738 250.4750621029532 L -351.8235508863738 254.0383861106547 L -349.5855137562145 257.10158804339915 L -346.0221897485129 257.10158804339915 L -342.69641457114244 257.10158804339915 L -339.0143161482754 256.5952403824468 L -335.83856538636064 254.05088305901296 L -331.5313143697973 249.04972334459904" stroke-width='1' stroke='rgba(0,0,0,1)' fill='none' id='a0dffe49-5709-42e0-a66c-070f3898a116' transform='matrix(2.621349 0 0 2.621349 -1102.9777 -617.59296)'/><path d="M-428.6976665905288 249.49982710854476 L -427.09729426121316 251.10019943786028 L -431.32327696647496 249.99994918350183 L -435.24918032324695 255.5012309728728 L -437.4872174534063 260.08980828599414 L -439.76898627342496 265.2222241051427 L -440.9129987352211 270.3546704418696 L -442.01324898957955 274.7181958730181 L -442.01324898957955 279.21923351247494 L -442.01324898957955 282.6075392080042 L -438.5999799149122 283.5202284254646 L -434.9178509744668 283.5202284254646 L -431.2357525515997 283.5202284254646 L -426.5971721862561 280.8696241528019 L -422.7337688300646 278.0877332578262 L -418.7328532655649 274.6681775620067" stroke-width='1' stroke='rgba(0,0,0,1)' fill='none' id='388671f4-e439-4960-b594-c3abe2f5bf78' transform='matrix(2.621349 0 0 2.621349 -1102.9777 -617.59296)'/><path d="M-604.4635068458917 231.6706948628896 L -602.8631650341545 233.27106719220524 L -604.4635068458917 236.403040487893 L -604.4635068458917 240.76655066025234 L -604.4635068458917 246.755442317433 L -604.4635068458917 251.5127970979421 L -604.4635068458917 256.2701671372404 L -604.4635068458917 262.06524165394916 L -604.4635068458917 267.86034668823635 L -604.4635068458917 271.66747562984267 L -604.4635068458917 277.56884287214797 L -603.8320981486215 281.3760023313327 L -602.8319150338643 285.0581007541998 L -600.0062314138726 287.42739398909373 L -596.324102473427 287.42739398909373 L -592.4607601523924 285.1456251690751 L -590.0976619859154 282.77633193418114 L -587.7346248545952 280.40700818170876 L -584.3400935730705 276.32482430590744 L -579.8515681407611 269.8733166776337 L -577.9511164629556 266.0599316324536 L -575.9131525768418 261.29632074837076 L -573.0186823351174 255.49497486929909 L -570.8494318266906 249.69362899022735 L -569.3115900155339 242.76702370129146 L -567.0048272987988 235.84040315356629 L -566.3734186015287 232.02701810838624 L -565.6982476968209 227.26340722430342 L -564.3416803014102 222.49981159900983 L -563.7102716041401 218.68642655382973 L -563.1664483569022 214.3104041743229 L -563.1664483569022 210.54702218136504 L -563.1664483569022 214.6917365753253 L -563.1664483569022 218.4988807757208 L -565.2544000364489 233.80868011223697 L -565.2544000364489 239.60378514652416 L -565.9795587345897 245.39887492202217 L -565.9795587345897 251.19397995630936 L -566.7547662613202 258.11434440046077 L -566.7547662613202 265.03469358582294 L -566.7547662613202 273.1678418547139 L -566.7547662613202 281.3009596060264 L -566.7547662613202 290.74065695931677 L -566.7547662613202 300.18035431260705 L -566.7547662613202 309.6200516658974 L -566.7547662613202 319.05974901918773 L -566.7547662613202 329.89351987175274 L -566.7547662613202 339.3332172250431 L -566.7547662613202 348.7729145783334 L -566.7547662613202 358.21261193162377 L -566.7547662613202 366.3457296829363 L -566.7547662613202 374.4788779518272 L -566.7547662613202 382.6120262207181 L -565.9420831483042 390.7451744896091 L -565.9420831483042 398.8782922409216 L -565.9420831483042 405.79867194386225 L -565.9420831483042 409.6058008854685 L -565.9420831483042 419.0454982387589 L -565.9420831483042 426.75353664042063 L -565.9420831483042 431.51089142092974 L -567.7174737897919 434.46157504208236 L -570.5869196172214 439.0063748889769 L -573.8689020695758 442.3696561702112 L -578.2449397078718 444.54516278221183 L -582.7084407258862 445.63293134700126 L -587.0844783641822 446.1767851118176 L -590.7791195117752 446.1767851118176 L -592.554510153263 443.2198759046696 L -594.3799496233406 436.44955113476317 L -595.0613461140438 431.68594025068035 L -595.0613461140438 425.88457911281944 L -595.0613461140438 420.083248492537 L -595.0613461140438 408.98690439534596 L -595.0613461140438 403.18554325748505 L -595.0613461140438 398.4219628909806 L -595.0613461140438 392.6206017531197 L -594.386175209336 387.85699086903685 L -592.9420833990499 382.05562973117594 L -590.772832890623 376.25429911089344 L -588.7348690045093 371.4906882268106 L -586.5656184960824 365.6893270889497 L -584.5276546099686 360.9257467224453 L -582.4896907238548 356.1621358383625 L -579.5952204821305 351.0859333986423 L -577.6947688043249 347.2725483534622 L -574.8003595977574 342.1963764313204 L -572.8999079199518 338.38299138614036 L -567.0673272993791 328.6869768917977 L -564.3479669225623 324.6047930159964 L -559.4155327947241 316.25908981349085 L -555.877202683739 310.80157023155755 L -553.1578423069222 306.7193863557561 L -551.3886772514297 303.7624466310298 L -549.4882255736242 299.9490615858497 L -545.868657668916 294.8728896637079 L -542.9679618411963 289.5528822900829 L -540.0172782200436 283.63900284063016 L -537.1604056349184 278.4940748143342 L -535.6600394100473 275.48086067502277 L -533.8345999399696 272.6364697794666 L -534.9848685053395 277.0562391076218 L -535.5349783737296 281.4197645387704 L -536.5914969382288 285.10186296163744 L -536.5914969382288 288.78396138450455 L -536.5914969382288 293.14748681565305 L -536.5914969382288 298.27993315237995 L -536.5914969382288 302.6434280659501 L -536.5914969382288 306.55684973315294 L -533.4407400730306 308.7073319308586 L -529.2022756781997 307.238246223856 L -527.1142629634961 303.5436355938415 L -525.4826711514687 299.1676284731239 L -524.3511403792417 294.02266992924956 L -523.2633718144522 289.64666280853197 L -522.7195485672142 285.2706556878144 L -522.7195485672142 281.5760450577999 L -522.7195485672142 277.88143442778534 L -522.7195485672142 273.3616284776073 L -524.1010793417631 270.14211550825496 L -527.1580251709338 268.3854626599099 L -530.177495413819 270.2109021299875 L -531.1027273560053 273.8617505525644 L -531.1027273560053 277.18752572993486 L -531.1027273560053 280.5133009073053 L -531.1027273560053 283.7515516698004 L -527.45184841585 284.5767469899639 L -523.8010305108515 283.1951551802582 L -520.4752248159027 280.35076428470205 L -517.737126645943 277.59386728644284 L -514.4113209509942 274.74944587330833 L -512.5859425160734 271.9925488750491 L -510.76050304599573 268.31670655575573 L -509.89154551839465 265.14095579384104 L -509.89154551839465 269.7232922621779 L -509.89154551839465 275.7121839193585 L -510.52917980166 279.5193128609649 L -511.16684460250383 283.3264418025712 L -512.3546192717376 289.3153334597518 L -512.992253555003 293.1224624013582 L -512.992253555003 298.2549087380851 L -513.4986012159554 301.5806839154555 L -510.4604236975058 303.61864780156935 L -507.6347705950925 301.19311066966867 L -505.6343128128426 298.1798965303572 L -504.04642217309606 294.48528590034266 L -502.4147998434902 290.1092787796251 L -500.8707019287598 286.4146681496106 L -499.7829333639703 282.0386305113146 L -498.69519531675917 277.662623390597 L -497.69495116684504 273.142817440419 L -497.69495116684504 269.37945070625034 L -496.4571581865998 266.39126098123376 L -495.1318713090577 262.796686973242 L -495.1318713090577 267.0164135749301 L -495.63821897001003 271.51745121438694 L -496.1445971485408 275.4308728815898 L -496.1445971485408 279.3442640312142 L -496.1445971485408 282.5825147937093 L -493.69403560234525 285.0080824431884 L -489.89313224673424 283.6702833584988 L -487.6113634267157 280.9133863602396 L -484.5043992865335 278.23150156970826" stroke-width='1' stroke='rgba(0,0,0,1)' fill='none' id='27a8bd65-7103-4a29-abb9-09a4812bce63' transform='matrix(2.621349 0 0 2.621349 -1102.9777 -617.59296)'/><g id="lb_master_transform" transform="matrix(1 0 0 1 788.15906 54.116592)"></g> </svg>